<!-- Generator: Adobe Illustrator 20.1.0, SVG Export Plug-In  -->
<svg version="1.1"
	 xmlns="http://www.w3.org/2000/svg" xmlns:xlink="http://www.w3.org/1999/xlink" xmlns:a="http://ns.adobe.com/AdobeSVGViewerExtensions/3.0/"
	 x="0px" y="0px" width="809.044px" height="527.084px" viewBox="0 0 809.044 527.084"
	 style="enable-background:new 0 0 809.044 527.084;" xml:space="preserve">
<style type="text/css">
	.st0{fill:#A39482;}
	.st1{fill:#BBA995;}
	.st2{opacity:0.8;fill:#AF9F8C;}
	.st3{fill:#A89987;}
	.st4{opacity:0.8;fill:#C4B29C;}
	.st5{fill:#C4B29C;}
	.st6{fill:#E1D88F;}
	.st7{clip-path:url(#SVGID_3_);fill:#757477;}
	.st8{fill:#666669;}
	.st9{clip-path:url(#SVGID_4_);fill:#757477;}
	.st10{clip-path:url(#SVGID_6_);fill:#757477;}
	.st11{clip-path:url(#SVGID_8_);fill:#757477;}
</style>
<defs>
</defs>
<g>
	<path class="st0" d="M576.545,526.993c45.811-1.268,52.355-35.634,8.735-46.954c-23.145-6.048-57.655-2.117-79.902,6.518
		c-34.78,13.512-37.576,34.192,4.192,36.68C520.467,523.908,550.989,527.716,576.545,526.993z"/>
	<path class="st1" d="M432.094,415.19c4.826-23.468-108.09-39.368-92.222,7.714C351.008,455.925,425.275,448.185,432.094,415.19z"/>
	<path class="st1" d="M444.956,126.905c4.308-20.954-96.549-35.162-82.368,6.894C372.521,163.285,438.861,156.367,444.956,126.905z"
		/>
	<path class="st1" d="M411.908,46.803c2.625-12.717-58.449-21.302-49.864,4.154C368.054,68.825,408.229,64.62,411.908,46.803z"/>
	<path class="st1" d="M347.398,12.262c2.626-12.691-58.439-21.276-49.869,4.18C303.549,34.287,343.715,30.103,347.398,12.262z"/>
</g>
<g>
	<path class="st2" d="M693.674,408.818c-3.084,5.326-5.609,11.049-9.504,15.853c-3.584,4.428-8.375,5.424-13.576,7.29
		c-2.261,0.796-4.677,1.593-7.067,1.968c-3.954,0.62-7.677,1.816-11.58,2.612c-4.542,0.921-8.835,2.81-13.393,3.656
		c-9.005,1.691-18.273,3.31-27.358,4.28c-2.365,0.249-9.26-0.025-10.042-2.86c2.381-0.946,4.682-2.341,7.043-3.31
		c2.091-0.846,4.752-0.799,6.583-2.216c1.318-1.046,2.227-2.488,3.619-3.534c4.232-3.209,8.275-6.693,12.578-9.803
		c8.984-6.497,16.527-13.736,27.373-16.774c9.074-2.562,13.303-10.898,21.254-14.68c3.125-1.495,7.143-1.567,10.562-1.245
		C701.551,391.052,697.543,402.125,693.674,408.818z"/>
	<path class="st3" d="M701.735,436.913c-0.993-3.185-2.052-6.345-3.12-9.507c-1.531-4.577-0.339-6.469-0.474-11.073
		c-0.125-4.154-1.702-10.55-6.37-9.406c-2.789,0.698-5.549,4.729-7.74,6.496c-3.22,2.613-7.078,5.997-6.395,10.6
		c0.484,3.259,3.659,7.442,4.842,10.627c1.353,3.658,3.07,7.19,4.478,10.799c4.267,10.849,8.026,22.172,14.654,31.727
		c4.817,6.919,8.65,14.583,13.276,21.626c0.6,0.918,0.91,2.562,1.908,3.159c2.236,1.317,1.442-2.389,1.317-3.709
		c-0.29-3.234,0.3-6.469-0.409-9.628c-0.959-4.306-2.041-8.636-3.658-12.743c-1.607-4.105-3.534-8.086-4.768-12.316
		c-2.076-7.143-3.918-14.357-5.984-21.501C702.794,440.346,702.274,438.63,701.735,436.913z"/>
	<path class="st3" d="M734.523,433.753c-0.324,3.781-0.723,7.564-1.058,11.349c-0.948,10.449,1.019,22.393-4.966,31.553
		c-2.326,3.557-4.078,6.966-4.862,11.221c-0.313,1.667-0.225,5.451-1.632,6.72c-2.65,2.365-2.951-2.937-2.96-4.379
		c-0.026-3.634,0.06-7.242,0.185-10.85c0.25-7.116,0.674-14.233,0.674-21.376c0-10.178-1.518-19.756-3.399-29.612
		c-1.702-8.907-5.061-16.198-3.878-25.456c2.644-0.274,8.521,0.399,11.519,0.871c2.336,0.374,8.76,1.842,10.377,3.435
		c2.586,2.538,1.304,9.281,1.304,12.565C735.827,424.621,734.934,428.973,734.523,433.753z"/>
	<path class="st4" d="M724.931,395.382c0.759,0,1.518,0,2.276,0.024c7.527,0.3,14.604,3.856,22.156,3.459
		c11.7-0.621,21.354-7.639,31.132-13.239c4.582-2.613,10.128-4.23,14.444-7.216c1.084-0.746,3.16-2.266,2.352-3.883
		c-0.934-1.864-6.254-0.993-7.946-0.821c-3.923,0.399-8.042,1.567-11.97,1.567c-4.382,0-8.975,0.549-13.342,0.921
		c-6.779,0.599-13.337,2.688-20.13,3.262c-5.161,0.422-11.521,0.746-16.562-0.424c-1.119-0.275-2.102-0.447-3.31-0.422
		c-1.752,0-5.546,0.696-6.918-0.399c1.856-3.434,4.707-6.469,7.192-9.432c2.451-2.935,4.442-5.972,6.818-8.932
		c2.726-3.409,6.035-6.222,9.209-9.185c4.043-3.781,8.286-7.811,11.705-12.142c1.298-1.642,2.825-3.037,3.634-4.829
		c-1.343-0.471-4.168,1.32-5.376,1.967c-3.319,1.767-6.743,3.259-10.078,5.001c-4.961,2.588-9.428,6.072-14.096,9.207
		c-4.691,3.112-9.119,5.822-14.455,7.565c-5.615,1.867-10.217,5.922-15.853,7.915c-5.899,2.09-11.77-1.168-16.771-4.331
		c-1.344-0.846-2.916-1.268-4.268-2.089c-1.593-0.946-2.966-2.267-4.593-3.162c-2.54-1.393-4.852-2.464-7.752-2.089
		c-0.324,1.07,1.094,4.006,1.692,4.951c1.059,1.692,2.75,3.459,4.059,4.977c1.467,1.692,2.81,3.284,4.167,5.001
		c1.643,2.067,3.634,3.285,5.102,5.576c4.452,6.918,10.911,15.503,18.164,19.809C704.61,399.312,715.112,395.631,724.931,395.382z"
		/>
	<path class="st2" d="M737.225,452.241c-0.974,6.372-2.166,12.966-5.676,18.366c-3.523,5.423-6.145,11.221-8.485,17.218
		c-1.282,3.287-2.415,7.442-6.209,8.314c-0.584-4.755,2.017-11.747,3.085-16.624c1.667-7.614,4.557-14.93,7.402-22.122
		c2.54-6.395,4.117-13.04,1.348-19.409c-3-6.868-2.268-12.815-3.424-20.105c-0.895-5.75-8.211-11.598-7.588-17.195
		c0.31-2.812,2.51-4.555,4.977-5.575c6.454-2.713,13.771-1.742,20.54-2.811c4.157-0.649,7.927-2.116,12.194-2.416
		c5.959-0.422,11.784-3.534,17.395-5.398c6.234-2.091,12.464-4.255,18.848-5.822c1.657-0.399,3.26-0.624,4.652-1.645
		c0.858-0.597,1.473-1.442,2.431-1.914c1.642-0.847,3.669-0.796,5.435-1.146c1.407-0.3,3.085-1.046,4.478-0.375
		c1.932,0.921-3.409,5.426-4.567,6.696c-3.409,3.706-8.311,6.294-12.39,9.132c-4.806,3.334-9.518,6.793-14.319,10.152
		c-7.802,5.451-16.387,9.406-24.453,14.458c-2.286,1.442-4.452,2.938-6.794,4.28c-1.441,0.821-2.994,2.017-3.334,3.634
		c-0.933,4.478,1.518,8.71-0.668,12.965c-2.167,4.256-3.56,8.558-4.268,13.312C737.634,449.553,737.434,450.898,737.225,452.241z"/>
	<path class="st2" d="M742.301,377.789c-1.383,0.099-15.318,0.072-15.295-1.17c0.016-0.622,1.893-1.867,2.352-2.289
		c3.574-3.312,6.594-7.093,10.293-10.228c5.076-4.354,9.344-10.302,13.271-15.628c3.115-4.23,5.676-8.86,8.5-13.265
		c1.793-2.811,4.254-5.772,7.479-6.94c2.835-1.021,3.174,0.671,2.525,3.109c-0.869,3.234-2.551,6.271-3.993,9.281
		c-2.191,4.555-4.043,9.332-5.835,14.061c-0.983,2.588-1.857,5.198-3.085,7.664c-0.823,1.668-2.899,4.477,0.11,4.977
		c1.282,0.199,2.551,0.05,3.818,0.297c2.69,0.524,5.525,0.921,8.275,0.945c3.035,0.051,6.334,0.225,9.244,0.847
		c1.777,0.374,6.969-0.398,7.787,1.567c-1.752,1.246-4.053,1.22-6.12,1.842c-5.935,1.742-12.019,4.43-18.253,3.509
		C756.496,375.348,749.204,377.34,742.301,377.789z"/>
	<g>
		<path class="st5" d="M668.353,374.527c4.707,4.255,14.521,8.535,14.894,15.753c-5.036,0.347-11.161,2.613-16.147,1.243
			c-6.608-1.768-11.375-8.957-14.72-14.433c-4.407-7.24-11.226-12.467-15.453-20.056c-3.075-5.551-4.852-12.169-9.509-16.524
			c-2.251-2.114-6.17-3.705-8.036-6.419c-3.319-4.854-0.21-7.093,4.727-4.329c5.825,3.233,10.842,11.619,15.493,16.62
			c4.777,5.151,8.127,11.723,13.537,16.101C658.141,366.566,663.566,370.222,668.353,374.527z"/>
		<path class="st3" d="M669.092,390.055c1.342,1.692,3.319,2.763,4.701,4.181c-2.54,1.146-3.723,3.933-5.785,5.772
			c-4.068,3.658-8.675,7.517-13.027,10.901c-9.145,7.09-17.555,17.17-28.815,21.126c-5.116,1.816-10.502,2.688-15.304,4.927
			c-3.374,1.567-7.566,4.951-11.311,4.454c2.241-5.2,9.703-9.48,13.512-13.86c2.052-2.364,2.762-5.001,5.286-7.141
			c1.981-1.67,4.268-3.387,6.434-5.126c11.076-8.885,23.28-26.627,38.868-26.727c6.334-0.025,13.612-0.475,19.736,1.02
			c-5.525,5.102-11.475,8.635-17.895,12.392"/>
		<path class="st5" d="M658.55,344.294c10.786,6.27,19.597,12.217,31.581,15.9c4.752,1.468,10.921,4.68,15.478,1.271
			c4.402-3.284,8.096-7.268,12.713-10.353c6.383-4.255,12.668-5.426,19.736-8.41c2.51-1.046,5.186-3.26,7.402-4.729
			c4.127-2.785,10.277-5.872,12.354-10.55c-5.076-0.324-12.295,3.061-17.221,4.877c-5.511,2.017-10.438,4.555-15.564,6.644
			c-5.001,2.017-9.928,5.076-15.044,6.446c-5.586,1.492-11.944,0.894-17.954,0.197c-12.044-1.343-22.072-3.01-32.649-8.435
			c-4.502-2.314-8.461-5.798-12.753-8.511c-2.4-1.492-5.301-3.706-8.076-4.43c-3.854-0.968-3.504,1.471-6.618,1.37
			c0.849,0.025,2.306,3.932,2.989,4.678c1.503,1.642,3.654,2.713,5.536,3.857C646.381,337.676,652.565,340.81,658.55,344.294z"/>
		<path class="st3" d="M761.309,330.832c1.642-0.724,3.289-1.47,4.682-2.562c1.518-1.195,2.275-2.812,3.234-4.431
			c1.592-2.737,1.332-3.037-1.967-2.266c-3.234,0.749-6.369,1.917-9.344,3.387c-13.946,6.891-25.831,16.671-39.328,24.137
			c-5.984,3.309-11.51,2.438-18.004,1.642c-5.216-0.646-9.318,0.249-14.494-1.567c-3.075-1.07-5.017-1.767-8.276-1.643
			c5.735-0.225,9.679,8.686,13.427,11.72c1.553,1.27,3.779,2.64,5.535,3.983c2.626,2.015,8.435,7.216,11.396,7.765
			c4.143,0.771,8.035-4.233,10.676-6.671c4.193-3.881,8.57-7.765,12.963-11.445c8.187-6.844,16.438-15.032,25.781-20.28
			C758.771,331.926,760.04,331.379,761.309,330.832z"/>
	</g>
</g>
<g>
	<path class="st2" d="M96.689,180.655c-5.486,2.788-10.727,6.197-16.611,8.111c-5.426,1.767-9.979,0-15.354-1.293
		c-2.342-0.549-4.792-1.195-7.004-2.191c-3.648-1.642-7.417-2.663-11.125-4.13c-4.318-1.692-8.945-2.438-13.228-4.205
		c-8.471-3.51-17.131-7.19-25.267-11.323c-2.116-1.094-7.752-5.076-6.868-7.861c2.501,0.496,5.201,0.571,7.712,1.043
		c2.216,0.424,4.417,1.941,6.733,1.742c1.667-0.148,3.22-0.896,4.951-0.994c5.301-0.398,10.587-1.12,15.888-1.37
		c11.076-0.571,21.338-2.513,32.1,0.847c9,2.787,17.086-1.892,25.821-0.746c3.419,0.472,6.828,2.588,9.528,4.704
		C112.961,170.053,103.567,177.146,96.689,180.655z"/>
	<path class="st3" d="M88.139,208.599c0.898-3.209,1.742-6.443,2.566-9.681c1.207-4.652,3.244-5.598,5.635-9.528
		c2.166-3.56,4.317-9.781-0.225-11.349c-2.71-0.945-7.228,0.921-10.027,1.219c-4.118,0.424-9.194,1.17-11.137,5.4
		c-1.367,3.013-0.982,8.235-1.717,11.548c-0.858,3.806-1.357,7.714-2.126,11.495c-2.341,11.423-5.366,22.968-5.002,34.588
		c0.274,8.438-0.698,16.948-0.648,25.384c0,1.068-0.634,2.638-0.125,3.682c1.158,2.315,2.516-1.219,3.125-2.414
		c1.527-2.86,3.769-5.251,4.901-8.285c1.542-4.131,2.984-8.336,3.868-12.666c0.898-4.33,1.442-8.71,2.726-12.94
		c2.141-7.118,4.527-14.158,6.684-21.275C87.156,212.058,87.654,210.342,88.139,208.599z"/>
	<path class="st3" d="M117.369,223.803c-2.342,2.987-4.732,5.947-7.083,8.961c-6.479,8.234-11.336,19.308-21.349,23.738
		c-3.894,1.717-7.218,3.633-10.192,6.768c-1.168,1.218-3.159,4.455-5.026,4.728c-3.509,0.549-0.884-4.056-0.1-5.274
		c1.956-3.062,3.998-6.022,6.06-8.985c4.093-5.847,8.325-11.569,12.219-17.567c5.551-8.534,9.483-17.395,13.277-26.676
		c3.419-8.411,4.592-16.35,10.612-23.468c2.375,1.196,6.942,4.98,9.184,7.019c1.768,1.567,6.359,6.298,6.844,8.51
		c0.783,3.56-3.969,8.511-5.75,11.249C123.429,216.86,120.313,220.022,117.369,223.803z"/>
	<path class="st4" d="M130.222,186.403c0.634,0.424,1.268,0.821,1.892,1.271c6.154,4.327,10.152,11.171,16.696,14.954
		c10.153,5.872,22.072,5.251,33.318,5.872c5.266,0.3,10.801,1.967,16.037,1.817c1.333-0.051,3.898-0.175,4.093-1.967
		c0.24-2.088-4.701-4.256-6.219-5.026c-3.51-1.792-7.592-3.059-10.901-5.201c-3.669-2.389-7.811-4.428-11.681-6.494
		c-6.01-3.184-12.643-5.026-18.652-8.235c-4.567-2.465-10.078-5.65-13.646-9.381c-0.809-0.822-1.533-1.521-2.551-2.166
		c-1.482-0.947-5.041-2.414-5.586-4.082c3.42-1.866,7.477-2.887,11.171-4.005c3.644-1.121,6.969-2.589,10.587-3.784
		c4.133-1.367,8.451-1.916,12.719-2.688c5.45-0.971,11.211-2.039,16.437-3.806c1.977-0.674,4.018-0.996,5.67-2.066
		c-0.868-1.121-4.218-1.146-5.585-1.269c-3.744-0.324-7.418-0.945-11.171-1.295c-5.575-0.521-11.226-0.049-16.836,0.025
		c-5.636,0.074-10.811-0.074-16.247-1.518c-5.716-1.493-11.8-0.596-17.61-1.992c-6.069-1.467-9.219-7.414-11.694-12.79
		c-0.669-1.442-1.752-2.638-2.451-4.056c-0.818-1.667-1.242-3.508-2.126-5.151c-1.368-2.562-2.711-4.727-5.351-5.997
		c-0.859,0.746-1.269,3.956-1.293,5.102c-0.025,1.991,0.424,4.38,0.693,6.371c0.314,2.214,0.574,4.28,0.773,6.469
		c0.26,2.613,1.269,4.728,1.243,7.44c-0.024,8.238,0.699,18.962,4.442,26.526C111.035,178.638,121.846,181.276,130.222,186.403z"/>
	<path class="st2" d="M109.542,240.8c-4.268,4.804-8.874,9.681-14.76,12.295c-5.895,2.637-11.255,6.07-16.496,9.827
		c-2.86,2.041-6.069,4.903-9.729,3.583c2.102-4.305,8.086-8.76,11.646-12.268c5.535-5.472,11.954-10.027,18.264-14.508
		c5.609-3.98,10.551-8.707,11.694-15.55c1.233-7.393,5.091-11.995,8.091-18.738c2.361-5.301-0.574-14.186,2.995-18.541
		c1.792-2.188,4.593-2.463,7.218-1.964c6.883,1.243,12.493,6.047,18.753,8.832c3.843,1.718,7.802,2.538,11.545,4.605
		c5.211,2.913,11.805,3.46,17.521,4.952c6.368,1.642,12.763,3.234,18.972,5.4c1.607,0.571,3.085,1.243,4.802,1.171
		c1.059-0.049,2.017-0.424,3.085-0.299c1.832,0.198,3.509,1.342,5.176,1.99c1.348,0.522,3.16,0.797,3.958,2.14
		c1.118,1.816-5.81,2.688-7.467,3.109c-4.887,1.27-10.396,0.746-15.379,0.921c-5.835,0.175-11.67,0.499-17.529,0.696
		c-9.504,0.324-18.863-1.019-28.382-1.168c-2.7-0.05-5.335,0.024-8.021-0.125c-1.657-0.1-3.609,0.05-4.782,1.245
		c-3.22,3.234-3.469,8.111-7.627,10.5c-4.128,2.388-7.651,5.251-10.836,8.834C111.359,238.761,110.461,239.778,109.542,240.8z"/>
	<path class="st2" d="M154.355,181.127c-1.193-0.696-12.863-8.285-12.18-9.307c0.359-0.546,2.601-0.546,3.225-0.646
		c4.787-0.82,9.395-2.363,14.206-2.987c6.624-0.871,13.441-3.531,19.645-5.872c4.917-1.842,9.569-4.33,14.346-6.494
		c3.025-1.367,6.709-2.513,10.058-1.742c2.921,0.696,2.286,2.289,0.42,3.981c-2.486,2.241-5.561,3.883-8.411,5.6
		c-4.303,2.639-8.471,5.648-12.553,8.636c-2.227,1.642-4.393,3.334-6.754,4.752c-1.592,0.921-4.866,2.163-2.615,4.205
		c0.958,0.871,2.102,1.442,3.035,2.339c1.966,1.916,4.133,3.783,6.424,5.301c2.525,1.691,5.186,3.658,7.287,5.747
		c1.298,1.271,6.06,3.459,5.686,5.551c-2.151,0.1-4.078-1.171-6.13-1.792c-5.935-1.767-12.493-2.838-17.221-6.993
		C167.607,186.803,160.404,184.486,154.355,181.127z"/>
	<g>
		<path class="st5" d="M94.124,138.103c1.642,6.122,7.526,15.079,3.923,21.327c-4.417-2.465-10.791-3.885-14.226-7.766
			c-4.577-5.076-4.662-13.687-4.487-20.108c0.26-8.485-2.615-16.572-2.031-25.232c0.449-6.347,2.565-12.865,1.033-19.061
			c-0.734-2.986-3.149-6.471-3.234-9.755c-0.15-5.872,3.684-6.072,6.318-1.046c3.125,5.873,2.766,15.629,3.934,22.372
			c1.193,6.918,0.435,14.259,2.586,20.877C89.906,125.859,92.472,131.882,94.124,138.103z"/>
		<path class="st3" d="M86.297,151.515c0.2,2.165,1.273,4.13,1.668,6.072c-2.761-0.425-5.262,1.268-8.012,1.691
			c-5.4,0.847-11.36,1.567-16.846,2.039c-11.546,0.971-24.074,4.829-35.684,2.017c-5.276-1.242-10.267-3.459-15.514-4.18
			c-3.684-0.522-9.05,0.025-11.91-2.438c4.717-3.16,13.303-2.663,18.873-4.256c3.015-0.871,5.041-2.688,8.326-3.109
			c2.565-0.324,5.425-0.524,8.2-0.823c14.107-1.393,34.017-9.629,47.145-1.218c5.32,3.434,11.67,7.018,15.987,11.62
			c-7.402,1.245-14.32,0.971-21.748,0.623"/>
		<path class="st5" d="M102.375,107.421c5.635,11.124,9.793,20.902,17.829,30.508c3.185,3.831,6.618,9.878,12.278,9.506
			c5.491-0.349,10.752-1.667,16.303-1.741c7.686-0.101,13.586,2.338,21.139,3.684c2.675,0.496,6.119,0.097,8.785,0.072
			c4.976-0.072,11.805,0.674,16.111-2.114c-4.093-3.037-11.984-4.13-17.11-5.301c-5.71-1.317-11.221-1.867-16.656-2.91
			c-5.301-1.021-11.101-1.146-16.127-2.787c-5.501-1.792-10.502-5.748-15.179-9.606c-9.359-7.689-16.861-14.558-22.781-24.859
			c-2.501-4.405-3.934-9.481-6.06-14.084c-1.193-2.562-2.416-5.997-4.357-8.113c-2.7-2.909-3.744-0.671-6.294-2.463
			c0.698,0.499-0.2,4.555-0.051,5.55c0.375,2.189,1.593,4.28,2.551,6.27C95.781,95.227,99.265,101.224,102.375,107.421z"/>
		<path class="st3" d="M195.889,152.087c1.768,0.301,3.549,0.574,5.316,0.426c1.927-0.176,3.443-1.122,5.136-1.968
			c2.811-1.418,2.761-1.817-0.424-2.985c-3.11-1.12-6.384-1.842-9.679-2.241c-15.443-1.816-30.732-0.1-46.136-1.168
			c-6.818-0.499-10.976-4.255-15.978-8.46c-4.028-3.362-7.961-4.854-11.311-9.21c-1.986-2.562-3.234-4.205-6.045-5.872
			c4.941,2.938,3.385,12.568,4.877,17.146c0.609,1.917,1.732,4.28,2.466,6.372c1.108,3.109,3.159,10.624,5.336,12.69
			c3.059,2.91,9.044,0.846,12.578,0.247c5.636-0.969,11.426-1.864,17.11-2.538c10.598-1.293,21.973-3.656,32.674-2.985
			C193.164,151.615,194.521,151.865,195.889,152.087z"/>
	</g>
</g>
<g>
	<path class="st2" d="M480.156,403.842c-4.678,1.992-9.194,4.53-14.147,5.772c-4.566,1.171-8.235-0.546-12.593-1.892
		c-1.901-0.597-3.908-1.268-5.66-2.189c-2.925-1.567-5.976-2.613-8.96-4.03c-3.459-1.643-7.242-2.514-10.686-4.206
		c-6.783-3.358-13.727-6.867-20.221-10.751c-1.691-0.996-6.109-4.603-5.226-6.844c2.041,0.55,4.258,0.746,6.309,1.296
		c1.793,0.473,3.524,1.816,5.451,1.792c1.393-0.051,2.699-0.55,4.143-0.55c4.393-0.024,8.795-0.347,13.188-0.247
		c9.17,0.147,17.744-0.896,26.43,2.464c7.268,2.785,14.195-0.624,21.338,0.821c2.811,0.546,5.501,2.487,7.612,4.404
		C494.167,395.977,486.025,401.329,480.156,403.842z"/>
	<path class="st3" d="M471.555,426.435c0.924-2.61,1.793-5.224,2.65-7.836c1.248-3.784,2.991-4.455,5.178-7.565
		c1.98-2.812,4.092-7.839,0.449-9.381c-2.191-0.921-6.021,0.372-8.352,0.446c-3.419,0.125-7.651,0.472-9.478,3.857
		c-1.293,2.391-1.268,6.721-2.051,9.432c-0.924,3.087-1.543,6.296-2.392,9.355c-2.561,9.31-5.685,18.666-6.034,28.27
		c-0.25,6.968-1.503,13.936-1.927,20.904c-0.065,0.896-0.685,2.139-0.314,3.034c0.839,1.967,2.142-0.871,2.715-1.816
		c1.418-2.288,3.395-4.131,4.503-6.569c1.492-3.334,2.925-6.718,3.883-10.252c0.983-3.508,1.678-7.092,2.96-10.527
		c2.166-5.747,4.518-11.42,6.692-17.168C470.562,429.223,471.061,427.831,471.555,426.435z"/>
	<path class="st3" d="M494.826,440.596c-2.082,2.338-4.219,4.627-6.324,6.992c-5.795,6.42-10.423,15.305-18.923,18.414
		c-3.31,1.195-6.159,2.588-8.785,5.001c-1.033,0.946-2.85,3.509-4.402,3.634c-2.925,0.25-0.499-3.384,0.21-4.354
		c1.781-2.414,3.623-4.752,5.484-7.093c3.71-4.577,7.517-9.082,11.052-13.81c5.052-6.745,8.784-13.836,12.419-21.275
		c3.295-6.746,4.702-13.24,10.053-18.763c1.892,1.118,5.451,4.477,7.192,6.269c1.368,1.418,4.901,5.551,5.177,7.415
		c0.443,2.963-3.749,6.794-5.366,8.96C500.211,435.195,497.477,437.609,494.826,440.596z"/>
	<path class="st4" d="M507.489,410.435c0.513,0.374,1.008,0.746,1.507,1.145c4.842,3.932,7.752,9.778,12.953,13.264
		c8.036,5.399,17.904,5.524,27.158,6.692c4.332,0.524,8.799,2.216,13.143,2.366c1.083,0.025,3.209,0.074,3.469-1.396
		c0.314-1.717-3.644-3.781-4.836-4.502c-2.801-1.668-6.111-2.938-8.727-4.88c-2.885-2.163-6.193-4.08-9.268-5.997
		c-4.792-2.96-10.163-4.825-14.945-7.812c-3.633-2.291-7.986-5.226-10.736-8.51c-0.619-0.725-1.183-1.32-1.991-1.917
		c-1.158-0.871-4.019-2.291-4.378-3.684c2.926-1.368,6.318-1.967,9.43-2.689c3.074-0.721,5.899-1.741,8.949-2.538
		c3.494-0.896,7.078-1.118,10.637-1.518c4.552-0.496,9.354-1.045,13.771-2.238c1.667-0.424,3.374-0.599,4.791-1.37
		c-0.658-0.971-3.408-1.193-4.543-1.367c-3.073-0.475-6.059-1.196-9.133-1.692c-4.577-0.722-9.254-0.646-13.896-0.896
		c-4.652-0.249-8.92-0.671-13.327-2.141c-4.627-1.567-9.689-1.143-14.405-2.639c-4.941-1.542-7.202-6.593-8.944-11.17
		c-0.475-1.221-1.298-2.267-1.792-3.484c-0.584-1.42-0.849-2.987-1.469-4.38c-0.997-2.166-1.99-4.031-4.107-5.227
		c-0.749,0.547-1.243,3.185-1.333,4.131c-0.135,1.642,0.1,3.634,0.215,5.301c0.135,1.842,0.234,3.559,0.284,5.376
		c0.06,2.163,0.784,3.955,0.624,6.194c-0.489,6.793-0.475,15.678,2.186,22.122C492.101,402.971,500.869,405.733,507.489,410.435z"/>
	<path class="st2" d="M487.448,454.158c-3.783,3.733-7.852,7.515-12.853,9.356c-5.017,1.842-9.634,4.355-14.161,7.192
		c-2.466,1.517-5.275,3.706-8.212,2.413c1.967-3.434,7.145-6.767,10.278-9.48c4.877-4.206,10.402-7.615,15.863-10.974
		c4.852-2.963,9.184-6.597,10.512-12.17c1.417-6.022,4.852-9.605,7.691-15.004c2.251-4.255,0.31-11.747,3.494-15.132
		c1.608-1.717,3.934-1.791,6.06-1.242c5.625,1.417,9.979,5.697,14.994,8.335c3.074,1.618,6.295,2.514,9.27,4.431
		c4.143,2.688,9.543,3.509,14.185,5.051c5.161,1.718,10.362,3.385,15.363,5.498c1.283,0.549,2.466,1.195,3.884,1.221
		c0.868,0.025,1.692-0.225,2.561-0.075c1.507,0.274,2.825,1.296,4.168,1.942c1.073,0.496,2.565,0.846,3.149,1.964
		c0.823,1.569-4.941,1.917-6.334,2.166c-4.104,0.772-8.62,0.05-12.738-0.075c-4.826-0.174-9.658-0.249-14.51-0.397
		c-7.861-0.248-15.504-1.892-23.355-2.541c-2.211-0.196-4.402-0.272-6.604-0.546c-1.367-0.175-2.975-0.15-4.008,0.771
		c-2.836,2.488-3.31,6.497-6.868,8.239c-3.544,1.741-6.604,3.905-9.429,6.693C489.065,452.591,488.257,453.362,487.448,454.158z"/>
	<path class="st2" d="M527.709,407.4c-0.958-0.621-10.167-7.539-9.528-8.335c0.31-0.425,2.161-0.3,2.675-0.35
		c4.004-0.425,7.887-1.442,11.88-1.692c5.526-0.35,11.286-2.189,16.536-3.759c4.153-1.268,8.152-3.034,12.205-4.577
		c2.565-0.945,5.66-1.691,8.385-0.87c2.377,0.721,1.768,2.014,0.125,3.309c-2.176,1.692-4.802,2.887-7.242,4.155
		c-3.703,1.942-7.303,4.181-10.822,6.419c-1.941,1.221-3.808,2.539-5.85,3.534c-1.354,0.699-4.127,1.545-2.386,3.36
		c0.744,0.771,1.651,1.294,2.376,2.091c1.518,1.691,3.195,3.334,5.012,4.726c1.98,1.52,4.068,3.287,5.7,5.126
		c0.993,1.146,4.802,3.212,4.378,4.904c-1.793-0.025-3.295-1.195-4.963-1.816c-4.801-1.768-10.152-3.013-13.825-6.719
		C538.311,412.824,532.501,410.535,527.709,407.4z"/>
	<g>
		<path class="st5" d="M480.391,368.604c1.008,5.127,5.376,12.841,2.041,17.792c-3.494-2.263-8.685-3.78-11.311-7.165
			c-3.483-4.454-3.084-11.572-2.575-16.846c0.673-6.993-1.258-13.812-0.284-20.954c0.719-5.176,2.81-10.452,1.901-15.626
			c-0.444-2.516-2.251-5.525-2.137-8.263c0.195-4.827,3.385-4.777,5.272-0.522c2.256,5.051,1.423,13.062,2.007,18.713
			c0.608,5.772-0.425,11.77,0.993,17.345C477.58,358.253,479.357,363.353,480.391,368.604z"/>
		<path class="st3" d="M473.188,379.231c0.051,1.792,0.818,3.484,1.033,5.102c-2.24-0.499-4.407,0.771-6.693,0.946
			c-4.508,0.421-9.459,0.671-14.022,0.771c-9.568,0.15-20.119,2.663-29.554-0.299c-4.277-1.343-8.261-3.435-12.564-4.33
			c-3-0.622-7.453-0.472-9.684-2.663c4.059-2.339,11.127-1.468,15.804-2.464c2.525-0.546,4.308-1.939,7.042-2.113
			c2.127-0.125,4.503-0.125,6.809-0.2c11.721-0.399,28.592-6.097,38.953,1.567c4.218,3.135,9.244,6.446,12.568,10.478
			c-6.184,0.621-11.885,0.024-17.994-0.696"/>
		<path class="st5" d="M488.891,343.72c4.028,9.507,6.918,17.795,13.013,26.181c2.426,3.31,4.917,8.51,9.618,8.51
			c4.543,0.025,8.96-0.796,13.553-0.549c6.328,0.35,11.061,2.688,17.215,4.208c2.182,0.571,5.051,0.422,7.242,0.547
			c4.107,0.225,9.719,1.218,13.412-0.847c-3.194-2.737-9.654-4.08-13.82-5.325c-4.628-1.393-9.16-2.164-13.587-3.31
			c-4.317-1.146-9.085-1.567-13.153-3.185c-4.441-1.792-8.346-5.351-11.979-8.76c-7.308-6.868-13.118-12.94-17.42-21.772
			c-1.842-3.759-2.726-8.039-4.233-11.945c-0.845-2.19-1.667-5.101-3.145-6.942c-2.066-2.564-3.05-0.772-5.052-2.389
			c0.545,0.446-0.424,3.756-0.35,4.577c0.185,1.842,1.068,3.634,1.753,5.301C484.114,333.32,486.649,338.471,488.891,343.72z"/>
		<path class="st3" d="M563.567,385.751c1.442,0.349,2.9,0.645,4.368,0.621c1.592-0.025,2.899-0.746,4.342-1.343
			c2.401-0.996,2.376-1.343-0.174-2.463c-2.526-1.121-5.177-1.867-7.877-2.388c-12.644-2.364-25.357-1.768-37.984-3.51
			c-5.611-0.772-8.836-4.105-12.729-7.84c-3.135-3.01-6.295-4.454-8.826-8.234c-1.491-2.217-2.435-3.66-4.65-5.177
			c3.908,2.688,2.091,10.549,3.06,14.407c0.414,1.617,1.208,3.634,1.706,5.376c0.725,2.636,2.002,8.957,3.685,10.799
			c2.376,2.538,7.427,1.171,10.377,0.871c4.702-0.499,9.528-0.896,14.245-1.146c8.82-0.472,18.339-1.817,27.124-0.646
			C561.352,385.228,562.449,385.478,563.567,385.751z"/>
	</g>
</g>
<g>
	<path class="st3" d="M493.144,212.755c4.258,2.963,8.476,4.056,12.294,7.739c2.066,1.992,3.434,4.605,5.236,6.669
		c3.908,4.43,8.575,7.889,12.408,12.519c2.426,2.835,9.578,7.489,10.512,10.648c2.017,6.869-8.261,19.063-13.961,21.974
		c-4.852,2.487-9.828,2.962-15.063,4.404c-6.11,1.667-12.02,4.704-18.254,5.922c-7.792,1.492-16.712,2.963-24.463,3.16
		c-6.743,0.225-12.568,4.255-18.663,4.133c21.428,12.615,43.076,20.876,68.133,21.674c8.745,0.273,17.53,1.566,26.255,2.016
		c4.177,0.225,8.546,1.02,12.714,0.77c3.448-0.149,7.018-2.562,10.576-0.62c8.351,4.526,4.752,29.111,5.485,37.771
		c0.574,7.068-2.051,12.469-0.793,19.037c0.759,3.982,3.843,7.59,0.733,11.148c0.359-4.18,5.525-6.718,9.743-9.232
		c6.993-4.181,11.036-9.73,15.798-16.05c4.951-6.597,7.567-11.148,10.178-18.516c2.965-8.261,9.658-15.379,13.576-23.54
		c2.352-4.876,5.352-12.393,10.328-14.932c5.201-2.636,14.994,0.149,20.704-0.222c8.561-0.549,16.187-2.117,24.822-0.972
		c13.871,1.817,27.558,6.296,41.568,6.993c6.194,0.272,11.771-2.216,17.864-2.638c4.967-0.349,10.812,2.488,12.085-3.558
		c0.149-0.573,0.783-1.097,0.958-1.719c-15.987-15.827-41.483-21.774-60.996-32.002c-9.054-4.752-21.871-10.227-27.247-19.06
		c-12.14-19.959,13.812-42.08,19.002-60.669c3.435-12.466-3.759-10.053-13.237-3.334c-7.876,5.574-14.001,13.263-22.187,18.389
		c-9.21,5.727-20.864,12.02-31.406,14.632c-17.999,4.431-36.268-3.684-53.513-7.539c-17.939-4.03-37.213-6.469-54.746-12.119
		c-4.877-1.567-8.596-4.527-13.473-3.085c-3.299,0.971-8.994,2.114-10.911,5.177c-2.79,4.404,1.368,6.568,4.936,8.011
		C485.441,207.903,488.268,209.371,493.144,212.755z"/>
	<path class="st6" d="M560.318,299.501c0.314,1.842,0.025,0.699-0.983,1.967c-1.717,2.166-1.577,4.63-2.212,7.143
		c2.092,1.318,1.268,3.731,0.35,5.398c-1.572,2.812-2.575,4.579-1.956,7.914c0.35,1.916,1.108,3.209,0.884,5.201
		c-0.125,1.07-0.425,2.017-0.55,3.084c-0.146,1.021,0.175,1.917,0.215,2.963c0.035,1.468-0.09,2.288-0.374,3.781
		c-0.324,1.966-1.158,3.833-0.908,5.774c0.174,1.318,0.908,1.567,0.474,3.11c-0.31,1.17-1.208,2.017-1.258,3.284
		c-0.085,2.142,1.667,4.455,1.692,6.568c0.024,1.121-0.934,1.867-0.908,2.862c0.05,0.922,0.848,1.468,1.093,2.264
		c0.763,2.416,0.149,3.685,1.742,5.801c2.341,3.034,3.733,4.33,4.367,7.961c0.314,1.817,1.223,4.73,3.648,4.305
		c2.651-0.496,3.47-4.13,4.577-6.097c0.749-1.293,1.482-1.518,2.551-2.413c1.243-1.07,1.967-2.713,2.801-4.081
		c1.168-1.916,2.15-1.892,3.833-3.059c2.436-1.667,4.876-3.833,7.188-5.675c3.335-2.663,6.159-6.047,8.974-9.232
		c0.91-1.046,1.992-1.967,2.552-3.234c1.108-2.539,1.442-5.227,2.825-7.689c0.953-1.692,1.667-3.534,2.102-5.276
		c0.449-1.767,1.377-3.109,2.116-4.852c0.444-1.07,0.509-2.439,0.884-3.334c0.409-1.071,1.178-1.445,1.742-2.291
		c0.883-1.368,0.968-3.11,1.566-4.577c0.794-1.893,0.934-3.335,0.983-5.301c0.035-2.092,0.903-2.888,2.685-4.081
		c1.867-1.221,3.024-1.792,3.509-4.305c0.41-2.142-0.064-3.959,1.283-5.897c1.128-1.643,3.185-2.663,3.893-4.58
		c0.459-1.293,0.67-2.935,0.934-4.38c0.15-0.846-0.424-1.218,0.35-2.189c1.717-2.092,5.236-0.475,7.438-1.992
		c2.276-1.566,3.234-3.084,5.975-1.12c1.902,1.396,2.561,2.538,4.912,1.941c2.774-0.696,5.176-0.771,8.141,0.274
		c1.777,0.622,4.727,3.459,6.544,3.359c1.033-0.05,2.041-1.518,3.233-1.567c1.553-0.05,2.561,0.821,3.584,1.817
		c0.783,0.771,1.344,2.314,2.461,2.562c0.734,0.148,2.302-0.724,3.039-0.921c2.427-0.721,4.852-1.021,7.313-0.149
		c3.784,1.268,4.728,4.305,9.22,4.056c2.615-0.149,4.781-0.497,7.207,0.525c2.551,1.093,4.962,2.413,7.602,3.384
		c4.068-4.058,7.652,2.514,11.631,0.796c0.658-0.274,0.898-1.17,1.891-1.42c1.1-0.271,1.633,0.125,2.616,0.449
		c2.077,0.723,4.028,1.964,6.109,2.064c1.728,0.074,2.626-0.722,4.054-1.193c1.406-0.475,2.326-0.25,3.723-0.125
		c1.678,0.125,3.455,0.25,5.297,0.2c5.026-0.125,9.718,0.472,11.894-4.88c-2.885-2.734-6.554-4.155-10.238-5.697
		c-7.152-2.96-14.494-5.351-21.547-8.511c-2.741-1.22-5.875-2.017-8.461-3.483c-2.666-1.493-4.882-4.081-7.393-5.897
		c-2.44-1.742-4.691-3.659-7.242-5.227c-1.668-0.995-5.102-2.562-6.07-4.305c-0.857-1.542-0.289-3.435-1.667-4.851
		c-1.208-1.271-3.483-1.568-5.026-2.364c-1.732-0.921-4.168-1.817-5.65-3.088c-1.067-0.945-1.557-2.388-2.64-3.309
		c-1.153-0.996-2.761-1.643-3.969-2.589c-2.601-1.988-5.845-3.209-8.46-5.226c-1.729-1.317-3.394-2.014-5.286-2.759
		c-0.948-0.4-1.942-1.047-2.851-1.546c-0.384-0.247-0.26-0.597-0.758-0.821c-0.16-0.075-1.009,0.149-1.168,0.074
		c-0.75-0.446-0.924-1.417-1.482-2.089c-0.385-0.474-0.859-0.499-1.233-1.096c-0.384-0.596,0.04-0.746-0.584-1.317
		c0.698-1.119,1.917-1.244,2.301-2.763c0.534-2.116-1.417-2.912,0.858-4.68c1.457-1.143,2.69-1.989,3.723-3.583
		c0.785-1.193,1.369-2.488,2.312-3.582c2.439-2.887,4.518-5.822,6.793-8.859c0.934-1.145,2.316-1.593,3.334-2.663
		c1.683-1.866,1.917-4.877,3.959-6.469c1.317-1.02,2.96-1.542,4.292-2.638c1.518-1.246,2.151-2.464,3.11-4.206
		c0.848-1.566,1.592-3.483,3.06-4.605c1.372-1.045,3.185-1.343,4.492-2.538c1.607-1.417,1.357-2.96,1.683-4.977
		c0.199-1.367,1.008-2.089,2.101-3.01c2.416-2.041,5.087-4.157,5.575-7.417c0.175-1.192-0.289-1.542,0.569-2.76
		c0.364-0.524,0.983-1.071,1.433-1.57c1.143-1.217,2.984-2.363,3.818-3.806c0.824-1.442,0.998-3.135,0.215-4.555
		c-0.609-1.121-0.465-0.946-1.558-1.317c-2.426-0.771-4.352-1.121-7.018-1.346c-1.791-0.172-3.533-0.597-5.26-0.621
		c-2.342-0.05-4.283,1.417-6.459,1.991c-2.092,0.571-5.252,0.921-6.979,2.288c-0.934,0.722-1.059,1.742-1.732,2.639
		c-0.908,1.195-0.549,0.921-2.45,1.07c-2.226,0.172-4.816,0.322-6.794,1.268c-1.367,0.672-1.666,1.246-2.635,2.414
		c-1.173,1.47-1.223,1.37-3.065,1.792c-2.262,0.549-4.688,0.324-6.844,0.995c-2.4,0.771-1.977,2.538-3.544,4.205
		c-1.033,1.121-3.109,1.867-4.577,2.142c-1.322,0.247-2.916-0.225-4.107,0.075c-1.803,0.446-1.567,1.243-2.701,2.935
		c-2.41,3.56-7.526,1.493-10.237,5.177c-2.525,3.334-5.835,2.987-9.259,5.176c-1.951,1.221-2.217,1.967-3.594,3.733
		c-1.258,1.617-3.025,1.518-4.967,1.814c-2.386,0.35-2.8,1.046-4.377,2.763c-0.924,0.996-1.857,2.689-3.085,3.385
		c-2.042,1.146-3.574-0.075-4.807,1.916c-1.144,1.817-1.009,3.21-3.095,4.63c-1.482,0.968-1.792,1.492-2.891,2.935
		c-1.152,1.518-2.485,0.871-3.668,1.867c0.634,0.274,1.207,0.746,1.317,1.243c-1.468-0.722-3.743-0.547-5.351-0.522
		c-4.887,0.101-9.229,2.863-14.131,2.664c-8.176-0.325-16.486-1.668-24.737-2.339c-11.136-0.946-22.606,1.293-33.657-0.896
		c-4.043-0.821-9.005-1.146-12.578-3.384c-1.344-0.847-1.917-1.37-2.761-2.763c-1.657-2.639-4.008-3.98-6.459-5.822
		c-3.794-2.913-7.078-5.026-11.535-6.171c-1.603-0.423-3.644-0.548-5.087-1.072c-2.45-0.896-3.358-2.413-5.635-0.422
		c-2.166,1.892-1.557,3.807,0.544,5.373c2.241,1.692,5.151,2.813,6.499,5.526c0.959,1.892,0.21,3.931,2.636,3.634
		c1.741-0.25,2.65-0.6,4.393,0.1c1.802,0.721,2.376,1.839,3.199,3.484c0.919,1.863,1.452,2.81,3.644,2.463
		c2.201-0.375,3.26-0.274,5.186,1.093c1.282,0.921,1.882,2.166,2.84,3.31c1.742,2.041,3.01,0.449,5.001,1.471
		c2.027,1.02,2.066,4.055,3.345,5.472c1.357,1.521,3.233,0.871,4.707,2.217c1.468,1.343,1.742,3.209,2.92,4.627
		c1.048,1.245,3.225,1.567,4.382,2.787c0.685,0.747,0.035,1.021,1.043,1.468c0.834,0.375,3.894-1.068,4.558-0.05
		c0.46,0.724-0.349,2.142-0.299,2.963c0.024,0.945,0.444,2.163,1.183,2.837c0.908,0.847,2.161,0.547,3.144,1.044
		c1.293,0.698,2.615,1.741,3.934,2.488c1.552,0.87,1.752,1.521,1.977,3.334c0.175,1.521,1.023,2.862,0.299,4.107
		c-0.359,0.597-2.6,2.264-3.184,2.589c-1.318,0.771-2.401,0.271-3.695,1.839c-2.055,2.491-3.163,5.526-4.641,8.313
		c-1.408,2.612-3.435,4.03-6.185,5.101c-4.667,1.817-9.394,3.584-14.11,5.251c-8.137,2.886-15.998,6.419-24.459,8.262
		c-7.217,1.617-14.659,2.213-22.047,3.855c-3.873,0.846-7.441,1.221-11.16,2.987c-4.174,1.941-1.907,6.469,1.852,6.693
		c2.102,0.15,3.858-0.472,5.92-0.422c2.405,0.022,3.948,1.194,6.124,2.363c2.886,1.518,3.345,0.522,6.21-0.174
		c2.186-0.547,5.585,0.124,7.602,0.896c1.877,0.696,3.459,2.538,5.41,2.413c1.967-0.125,3.819-1.442,5.976-1.417
		c1.417,0.024,2.92,0.322,4.228,0.871c0.973,0.371,2.451,1.667,3.498,1.816c1.951,0.223,4.154-1.12,5.736-2.017
		c1.842-1.021,4.677-1.816,6.828-1.271c3.074,0.774,4.068,4.23,7.316,4.954c3.41,0.746,3.685-2.366,6.46-3.087
		c2.126-0.57,4.662,1.02,6.644,1.42c2.71,0.497,4.316,0.147,6.369-1.271c1.717-1.195,2.75-2.562,4.926-2.96
		c1.458-0.275,3.21-0.424,4.578,0.098c1.083,0.449,2.381,2.018,3.674,1.195c1.317-0.821,0.982-3.608,2.201-4.752
		c1.926-1.792,3.833,1.79,6.033,1.667c3.42-0.199,3.783-5.226,7.518-4.108c1.951,0.574,5.172-0.547,6.08,1.717
		c0.364,0.971-0.035,2.391,0.015,3.409C559.375,297.412,560.094,298.208,560.318,299.501z"/>
	<g>
		<g>
			<defs>
				<path id="SVGID_2_" d="M449.809,281.584c15.203-7.639,31.765-11.62,47.977-16.472c7.492-2.266,14.605-5.6,21.498-9.256
					c4.656-2.441,12.444-4.705,16.362-8.164c4.757-4.205,2.032-4.105-2.835-7.489c-4.941-3.459-8.944-8.014-13.986-11.298
					c-5.436-3.534-11.585-5.448-16.806-9.804c-10.243-8.51-19.003-17.27-31.481-23.043c-3.199-1.47-9.469-4.13-3.584-7.467
					c4.418-2.463,14.57-0.472,19.412,0.274c14.62,2.166,29.3,3.908,43.859,6.644c13.361,2.514,26.85,6.098,39.752,10.402
					c10.672,3.56,17.096,9.978,25.94,1.171c8.96-8.91,18.938-16.945,29.81-23.418c9.817-5.773,20.644-9.156,30.562-14.657
					c3.753-2.089,40.785-19.085,43.434-13.013c1.568,3.632-11.484,15.602-13.551,17.817c-4.951,5.325-9.793,10.799-14.455,16.325
					c-6.349,7.488-12.594,15.053-18.628,22.768c-3.075,3.931-6.085,7.913-9.01,11.944c-2.4,3.309-5.55,6.843-0.708,9.156
					c6.084,2.963,12.084,6.122,17.943,9.481c11.979,6.769,23.6,14.086,35.719,20.58c12.02,6.443,25.307,9.506,37.151,15.75
					c4.617,2.416,9.124,5.8,13.077,9.209c5.65,4.827,9.209,8.386,0.574,9.507c-23.68,3.06-46.051-5.775-69.131-9.457
					c-17.904-2.837-35.025-9.06-52.64-12.368c-12.034,17.842-17.12,36.208-24.588,55.816c-4.303,11.296-11.845,20.43-19.122,29.861
					c-2.525,3.26-16.003,37.848-22.906,23.24c-1.342-2.811-0.398-9.456-0.758-12.566c-1.683-14.258-1.782-28.219,0.684-42.377
					c0.809-4.555,6.968-49.918,5.336-49.52c-14.904,3.608-27.333,12.291-42.912,14.457c-8.859,1.195-18.279-0.35-27.197-0.721
					c-6.385-0.275-56.114,0.945-56.938-6.072C437.07,283.875,446.623,283.178,449.809,281.584z"/>
			</defs>
			<use xlink:href="#SVGID_2_"  style="overflow:visible;fill:#89888C;"/>
			<clipPath id="SVGID_3_">
				<use xlink:href="#SVGID_2_"  style="overflow:visible;"/>
			</clipPath>
			<path class="st7" d="M584.282,297.859c-2.896,9.109-6.494,18.091-9.764,27.101c-3.583,9.753-8.251,21.102-9.149,31.429
				c-0.634,7.115,0.999,14.158,1.398,21.226c0.334,6.047,0.145,11.273,2.111,16.921c6.633-4.404,13.611-16.522,18.043-23.392
				c9.47-14.681,14.596-36.156,29.575-46.458c6.533-4.455,14.171-7.739,21.038-11.67c10.218-5.851,19.322-6.047,30.867-5.825
				c22.486,0.475,44.967,8.338,67.475,6.146c6.758-0.645,23.828-4.279,13.751-13.262c-4.816-4.305-15.567-6.321-21.588-8.214
				c-6.259-1.889-12.628-2.909-19.038-4.055c-9.503-1.718-18.961-4.802-28.131-7.79c-21.697-7.042-42.876-14.232-63.241-24.385
				c-3.674-1.817-13.776-9.232-18.353-7.715c-6.244,2.064-4.043,14.93-5.36,19.884C591.289,277.728,587.457,287.906,584.282,297.859
				z"/>
			<path class="st7" d="M667.324,219.348c7.228-4.852,11.506-6.915,15.314-14.904c3.832-8.088,7.053-16.473,10.342-24.785
				c3.594-9.182,12.114-19.384,10.102-29.936c-12.268-0.571-29.913,12.169-38.958,20.13c-9.943,8.735-18.539,20.409-22.646,32.799
				c-2.102,6.322-11.705,22.321-5.176,28.169C643.83,237.59,660.356,224.028,667.324,219.348z"/>
			<path class="st7" d="M490.543,198.472c14.77,6.519,31.516,8.859,46.51,15.029c11.91,4.854,57.956,33.195,29.226,46.285
				c-9.828,4.43-20.814,6.071-31.142,8.235c-15.055,3.212-30.493,5.626-45.712,6.818c-6.06,0.475-12.304,0.175-18.179,1.567
				c-5.61,1.346-12.204,4.954-17.879,4.805c5.141-10.402,17.77-13.04,27.498-18.092c8.734-4.479,18.378-7.067,26.473-12.841
				c2.951-2.113,8.217-5.872,7.992-10.152c-0.275-5.972-11.709-7.415-16.611-9.928c-12.08-6.197-21.398-12.716-29.699-23.492
				c-2.859-3.656-5.824-8.211-4.966-13.138C466.829,178.292,485.082,196.084,490.543,198.472z"/>
		</g>
		<path class="st8" d="M520.133,260.607c0.572,2.339,9.768,0.025,11.595-0.496c1.892-0.549,11.919-4.008,10.227-7.542
			c-1.617-3.435-6.295-0.122-8.31,0.846c-3.52,1.692-10.577,2.166-12.953,5.501C520.192,259.637,520.032,260.209,520.133,260.607z"
			/>
		<g>
			<path class="st8" d="M594.165,212.581c1.542,2.962,5.196,1.941,7.427,0.549c3.854-2.389,6.245-5.401,8.896-9.01
				c0.724-0.946,4.133-4.006,3.175-5.349c-0.649-0.921-2.477,0.197-3.24,0.597c-2.252,1.243-4.312,2.563-6.403,4.105
				c-1.442,1.02-3.135,1.767-4.657,2.812C597.694,207.479,592.742,209.87,594.165,212.581z"/>
			<path class="st8" d="M621.658,188.319c-1.593,1.219-3.121,2.91-1.953,4.577c1.06,1.395,4.344,0.399,5.587-0.047
				c0.749-0.25,1.308-0.549,1.991-1.02c1.682-1.121,3.549-1.893,5.201-3.013c2.65-1.767,5.451-3.781,7.752-5.947
				c0.623-0.571,2.126-2.014,1.242-2.811c-0.559-0.474-2.301,0.148-2.875,0.322c-1.617,0.399-3.393,0.548-4.926,1.146
				c-2.352,0.896-4.178,2.738-6.469,3.682c-1.293,0.573-2.427,0.995-3.635,1.792C623.09,187.299,622.367,187.77,621.658,188.319z"/>
			<path class="st8" d="M649.195,206.758c0.035,0.274,0.16,0.55,0.285,0.821c2.291,4.704,12.219-8.186,10.711-10.824
				c-0.844-1.442-3.119-0.496-4.192,0.176c-2.052,1.292-4.078,3.034-5.501,5.051C649.495,203.424,648.781,205.066,649.195,206.758z"
				/>
			<path class="st8" d="M633.917,224.45c0.01,0.474,0.159,0.971,0.569,1.47c2.625,3.359,7.268-1.37,8.525-3.684
				c0.868-1.593,5.969-6.568,3.783-8.485c-0.684-0.597-3.783,1.221-4.558,1.692c-2.226,1.492-4.268,3.11-5.994,5.176
				C635.345,221.689,633.867,223.008,633.917,224.45z"/>
			<path class="st8" d="M665.144,191.18c2.351,1.22,4.781-2.364,5.774-4.031c0.659-1.218,1.518-1.692,2.426-2.588
				c0.924-0.896,1.543-2.189,2.426-3.16c0.334-0.35,1.209-1.046,1.108-1.592c-0.524-2.291-7.253,2.588-8.051,3.234
				c-1.478,1.221-2.875,2.688-3.769,4.38c-0.449,0.821-1.158,2.538-0.375,3.434C664.849,191.008,664.959,191.133,665.144,191.18z"/>
			<path class="st8" d="M648.611,177.718c-0.563,1.021-0.449,1.941,0.77,2.564c2.116,1.046,6.358-2.588,7.986-3.559
				c1.991-1.219,5.515-2.91,6.718-5.077c1.598-2.835-2.735-1.517-3.978-1.092C656.188,171.971,650.748,173.812,648.611,177.718z"/>
			<path class="st8" d="M675.026,168.86c-0.015,0.05-0.024,0.123-0.024,0.197c0.034,1.942,0.334,4.133,2.72,3.409
				c1.672-0.472,3.698-1.939,5.031-3.01c1.962-1.518,3.929-3.584,5.286-5.697c0.498-0.797,2.56-2.738,2.201-3.784
				c-0.409-1.268-1.527-1.021-2.486-0.571c-1.557,0.646-3.214,1.268-4.706,2.089c-0.934,0.524-1.718,1.245-2.626,1.742
				c-0.894,0.475-1.852,0.821-2.7,1.345C676.194,165.598,675.062,166.944,675.026,168.86z"/>
		</g>
		<path class="st6" d="M595.707,249.659c1.168-1.221,2.037-2.663,2.252-4.155c1.068-7.54-9.234-5.052-11.511-0.274
			c-0.359,0.796-0.624,1.617-0.698,2.413C584.866,254.935,591.924,253.565,595.707,249.659z"/>
		<path class="st8" d="M594.165,292.161c0.834-0.273,1.593-0.324,2.425,0.05c-1.456,8.086-16.945,20.505-16.9,5.573
			c0.051-5.299,1.598-16,6.274-6.021c2.935,6.271,1.134,3.808,6.879,0.995C593.292,292.535,593.741,292.31,594.165,292.161z"/>
		<path class="st8" d="M598.158,264.292c0.669-0.524,1.393-0.847,2.326-0.722c1.158,8.161-9.658,24.782-14.27,10.624
			c-1.657-5.076-3.559-15.726,4.043-7.739c4.742,5.052,2.251,3.284,6.843-1.192C597.449,264.913,597.818,264.563,598.158,264.292z"
			/>
		<path class="st8" d="M578.922,333.543c4.367,0.698,11.234-13.709,10.486-17.792c-0.544-3.085-7.128,5.176-7.362,5.65
			c-0.549,1.043-5.825-5.276-6.868,3.084C574.803,327.523,575.037,332.921,578.922,333.543z"/>
		<path class="st8" d="M570.92,266.979c0.634,0.522,1.133,1.143,1.193,2.089c-7.688,2.912-26.275-4.006-13.462-11.595
			c4.557-2.738,14.535-6.918,8.4,2.238c-3.844,5.748-2.676,2.938,2.675,6.422C570.151,266.43,570.57,266.68,570.92,266.979z"/>
		<path class="st8" d="M527.609,275.215c1.643,4.105,17.555,2.539,20.63-0.174c2.391-2.066-8.076-3.459-8.62-3.409
			c-1.198,0.05,1.518-7.69-6.199-4.306C530.619,268.571,526.142,271.556,527.609,275.215z"/>
		<path class="st8" d="M606.119,230c2.701,0.921,2.117,4.28,2.291,6.52c5.302,0.945,11.795-11.995,5.496-14.583
			c-3.359-1.317-7.188,0.375-9.988,2.191c-1.382,0.871-5.266,3.659-3.549,5.698C601.752,231.443,604.378,229.428,606.119,230z"/>
		<path class="st8" d="M624.807,212.979c0.45,0.275,0.71,0.946,1.094,2.639c0.849,3.905,3.858,0.446,5.066-1.271
			c1.543-2.164,3.693-6.519,0.025-8.012c-2.801-1.146-6.16,1.243-8.476,2.735c-1.542,0.971-4.901,3.385-1.168,3.784
			C623.3,213.08,624.209,212.655,624.807,212.979z"/>
		<path class="st8" d="M640.062,198.447c1.642,0.921,0.31,4.33,2.835,4.181c1.782-0.15,1.967-2.888,2.591-4.155
			c1.008-2.066,4.302-6.993-0.724-5.723c-3.26,0.746-6.33,2.685-8.496,5.051C637.111,199.018,638.969,197.85,640.062,198.447z"/>
		<path class="st8" d="M614.89,251.101c0.514,2.812-2.71,3.908-4.627,5.126c1.667,5.127,16.152,4.68,15.419-2.089
			c-0.375-3.583-3.709-6.146-6.649-7.764c-1.427-0.796-5.72-2.888-6.694-0.399C611.555,247.967,614.62,249.309,614.89,251.101z"/>
		<path class="st8" d="M638.769,259.462c0.01,0.551-0.459,1.071-1.833,2.241c-3.019,2.589,1.483,3.56,3.56,3.856
			c2.65,0.299,7.492,0.1,7.067-3.831c-0.324-2.987-4.053-4.805-6.469-6.147c-1.532-0.87-5.286-2.688-3.844,0.771
			C637.97,258.17,638.769,258.791,638.769,259.462z"/>
		<path class="st8" d="M658.799,265.959c-0.024,1.914-3.644,2.338-2.315,4.477c0.974,1.545,3.483,0.375,4.892,0.325
			c2.315-0.101,8.201,0.474,4.717-3.385c-2.241-2.463-5.416-4.255-8.511-5.051C656.922,263.668,658.838,264.738,658.799,265.959z"/>
		<path class="st8" d="M652.729,187.348c0.175,0.1,0.359,0.175,0.509,0.3c0.668,0.646,0.135,2.164,1.553,2.114
			c1.198-0.101,1.308-1.992,1.742-2.838c0.714-1.393,2.94-4.752-0.494-3.906c-1.049,0.25-5.142,1.567-5.142,3.085
			C650.912,187.099,651.956,187.099,652.729,187.348z"/>
		<g>
			<path class="st8" d="M617.68,282.233c-0.559-0.274-1.393-0.1-2.241,0.896c-3.259,3.656-4.717,9.282-5.601,14.034
				c-0.858,4.48,2.726-0.025,3.624-1.368c1.752-2.788,4.652-7.442,5.151-10.7C618.812,283.775,618.438,282.63,617.68,282.233z"/>
			<path class="st8" d="M604.178,316.996c0.684-1.892,1.023-4.131-0.868-4.852c-1.643-0.599-3.849,2.089-4.632,3.085
				c-0.494,0.621-0.794,1.195-1.084,1.941c-0.793,1.864-1.926,3.534-2.721,5.424c-0.748,1.891-4.117,7.613-0.148,8.534
				c3.668,0.871,5.186-6.369,6.578-8.46c0.759-1.168,1.482-2.189,2.066-3.459C603.594,318.663,603.903,317.867,604.178,316.996z"/>
			<path class="st8" d="M565.794,319.309c-0.185-0.199-0.435-0.397-0.684-0.547c-4.518-2.688-5.636,13.587-2.925,14.93
				c1.467,0.746,2.85-1.293,3.358-2.438c1.023-2.188,1.732-4.776,1.792-7.215C567.401,322.221,567.076,320.455,565.794,319.309z"/>
			<path class="st8" d="M572.088,292.186c-0.244-0.375-0.669-0.722-1.253-0.896c-4.032-1.343-5.351,5.102-5.116,7.766
				c0.15,1.791-1.357,8.783,1.543,9.181c0.883,0.125,2.49-3.085,2.84-3.931c1.078-2.464,1.867-4.952,2.137-7.64
				C572.412,295.27,572.922,293.406,572.088,292.186z"/>
			<path class="st8" d="M563.518,341.207c-0.199-0.048-0.409-0.048-0.574-0.025c-5.011,0.574-2.71,14.808-2.535,17.845
				c0,0,1.877-2.962,2.041-3.559c0.444-1.892,0.545-3.709,1.303-5.501C564.511,348.175,566.893,342.078,563.518,341.207z"/>
			<path class="st8" d="M588.999,344.815c-0.075-1.143-0.649-1.842-2.026-1.691c-2.326,0.274-3.873,5.65-4.707,7.392
				c-0.994,2.114-2.995,5.474-2.795,7.913c0.199,3.258,3.109-0.224,3.902-1.27C585.89,353.801,589.358,349.27,588.999,344.815z"/>
			<path class="st8" d="M571.395,368.58c-0.016-0.024-0.051-0.1-0.115-0.148c-1.078-1.619-2.535-3.287-4.152-1.37
				c-1.118,1.346-1.967,3.634-2.516,5.276c-0.794,2.363-1.293,5.176-1.253,7.689c0.024,0.945-0.64,3.708,0.209,4.354
				c1.059,0.821,1.827,0,2.416-0.87c0.919-1.443,1.987-2.863,2.771-4.355c0.499-0.921,0.724-1.992,1.223-2.913
				c0.494-0.871,1.108-1.667,1.492-2.638C572.213,371.964,572.402,370.197,571.395,368.58z"/>
		</g>
		<g>
			<path class="st8" d="M557.259,277.953c-0.26-0.599-1.009-0.971-2.302-0.796c-4.852,0.696-9.593,4.13-13.337,7.165
				c-3.523,2.888,2.102,1.742,3.659,1.271c3.145-1.022,8.32-2.639,10.836-4.855C557.134,279.843,557.583,278.699,557.259,277.953z"
				/>
			<path class="st8" d="M526.961,291.115c2.75-0.446,6.148-3.109,2.5-4.826c-2.461-1.171-8.046,0.249-10.736,0.175
				c-1.917-0.075-3.809-0.325-5.77-0.175c-2.65,5.522,8.545,5.747,11.245,5.201C524.859,291.34,525.917,291.265,526.961,291.115z"/>
			<path class="st8" d="M512.405,265.858c0.085-0.249,0.149-0.571,0.185-0.846c0.6-5.201-14.694,0.422-14.805,3.459
				c-0.074,1.667,2.366,2.089,3.609,2.089c2.436,0,5.086-0.397,7.327-1.343C510.379,268.521,511.881,267.501,512.405,265.858z"/>
			<path class="st8" d="M488.627,273.772c-0.025-0.225-0.061-0.374-0.186-0.549c-2.166-3.658-13.688,1.32-14.37,4.23
				c2.177,1.245,4.402,0.199,6.693,0.125C482.717,277.529,489.25,277.181,488.627,273.772z"/>
			<path class="st8" d="M500.286,290.595c0.993-0.575,1.407-1.371,0.709-2.564c-1.218-2.017-6.778-1.196-8.67-1.221
				c-2.341-0.05-6.199-0.472-8.386,0.696c-2.891,1.545,1.518,2.737,2.8,3.012C490.808,291.44,496.368,292.758,500.286,290.595z"/>
			<path class="st8" d="M465.695,285.814c0.04-0.05,0.065-0.098,0.101-0.147c1.033-1.667,1.932-3.684-0.47-4.38
				c-1.667-0.449-4.143-0.274-5.85-0.1c-2.476,0.225-5.236,0.921-7.502,1.991c-0.859,0.398-3.645,0.943-3.92,2.039
				c-0.288,1.27,0.785,1.668,1.803,1.817c1.707,0.249,3.449,0.647,5.092,0.746c1.068,0.025,2.137-0.175,3.194-0.1
				c0.983,0.074,1.967,0.324,3,0.299C462.936,287.956,464.627,287.385,465.695,285.814z"/>
		</g>
		<g>
			<path class="st8" d="M657.121,249.981c-0.389,0.549-0.273,1.37,0.62,2.315c3.324,3.632,8.81,5.623,13.452,6.993
				c4.367,1.267,0.234-2.736-1.049-3.733c-2.575-2.042-6.854-5.351-10.103-6.222C658.749,248.988,657.557,249.285,657.121,249.981z"
				/>
			<path class="st8" d="M636.104,235.573c-0.369,0.549-0.245,1.37,0.664,2.341c3.269,3.606,8.779,5.599,13.397,6.966
				c4.367,1.295,0.239-2.71-0.994-3.706c-2.615-2.042-6.917-5.4-10.142-6.222C637.735,234.605,636.543,234.877,636.104,235.573z"/>
			<path class="st8" d="M687.055,261.229c-1.826-0.821-4.057-1.418-4.926,0.424c-0.773,1.568,1.643,4.006,2.601,4.927
				c0.573,0.521,1.093,0.896,1.802,1.27c1.807,0.968,3.359,2.238,5.127,3.209c1.807,0.946,7.167,4.877,8.51,1.046
				c1.208-3.584-5.795-5.8-7.802-7.417c-1.067-0.871-1.977-1.692-3.245-2.363C688.613,262.025,687.864,261.603,687.055,261.229z"/>
			<path class="st8" d="M669.461,280.963c-2.676-0.3-6.354-0.149-3.01,2.216c2.935,2.039,6.559,3.457,10.127,3.906
				c1.592,0.175,8.286,0.225,6.769-2.238c-1.702-2.688-9.928-3.188-12.827-3.709C670.209,281.088,669.835,281.038,669.461,280.963z"
				/>
			<path class="st8" d="M639.912,273.174c-1.479-0.422-2.977-0.821-4.453-1.293c-3.674-1.07-3.523,1.143-0.809,2.763
				c3.469,2.039,7.688,4.402,11.795,4.402c2.376,0.025,4.802,1.346,7.103,0.551c-0.499-2.64-5.735-3.834-7.802-4.581
				C643.805,274.369,641.854,273.748,639.912,273.174z"/>
			<path class="st8" d="M698.875,287.906c-0.074,0.199-0.084,0.374-0.109,0.571c0.1,4.083,9.828,4.779,12.563,4.38
				c5.425-0.746-2.336-3.584-3.694-4.304C705.903,287.606,700.094,284.646,698.875,287.906z"/>
			<path class="st8" d="M712.078,275.712c-1.099,0.35-1.668,1.046-1.184,2.389c0.773,2.191,6.395,2.516,8.261,2.938
				c2.267,0.472,5.976,1.667,8.326,0.945c3.135-0.945-0.909-2.987-2.126-3.483C721.531,276.758,716.346,274.345,712.078,275.712z"/>
			<path class="st8" d="M733.541,288.428c-0.874,0.673-1.707,1.641-2.341,2.986c-1.493,2.91,0.374,3.01,2.726,3.209
				c2.935,0.225,10.477,4.68,12.752,1.296c1.558-2.341-2.115-5.325-3.908-6.496C739.436,287.284,736.142,286.563,733.541,288.428z"
				/>
		</g>
		<g>
			<path class="st8" d="M580.623,216.589c1.508-3.858-12.828-12.169-15.139-7.59c-1.717,3.457,12.069,9.928,14.295,8.511
				C580.204,217.26,580.504,216.935,580.623,216.589z"/>
			<path class="st8" d="M532.775,232.414c1.887,0.671,4.153,1.096,4.887-0.821c0.609-1.617-1.977-3.855-3-4.652
				c-0.619-0.523-1.168-0.849-1.912-1.17c-1.856-0.797-3.508-1.942-5.351-2.788c-2.915-1.243-6.11-2.488-9.194-3.309
				c-0.809-0.225-2.824-0.747-3,0.424c-0.124,0.771,1.344,1.839,1.753,2.288c1.223,1.121,2.325,2.538,3.599,3.534
				c2.051,1.518,4.587,2.089,6.653,3.484c1.134,0.796,2.116,1.517,3.425,2.089C531.168,231.742,531.941,232.114,532.775,232.414z"/>
			<path class="st8" d="M533.26,201.832c0.185-0.2,0.359-0.425,0.509-0.697c2.785-4.454-13.437-5.896-14.829-3.184
				c-0.783,1.467,1.217,2.859,2.336,3.384c2.227,1.043,4.792,1.839,7.218,1.964C530.27,203.374,532.062,203.124,533.26,201.832z"/>
			<path class="st8" d="M557.233,208.774c0.359-0.249,0.709-0.646,0.898-1.271c1.442-4.03-5.017-5.397-7.651-5.226
				c-1.807,0.15-8.75-1.518-9.209,1.37c-0.15,0.871,3.034,2.514,3.883,2.91c2.436,1.096,4.9,1.941,7.587,2.291
				C554.134,209.024,556.016,209.596,557.233,208.774z"/>
			<path class="st8" d="M549.881,248.364c0.459,0.024,0.969-0.173,1.457-0.572c3.335-2.662-1.406-7.265-3.772-8.485
				c-1.603-0.846-6.63-5.897-8.521-3.708c-0.609,0.698,1.268,3.783,1.767,4.529c1.468,2.214,3.135,4.255,5.226,5.947
				C547.121,246.971,548.424,248.414,549.881,248.364z"/>
			<path class="st8" d="M510.773,197.055c-0.244-2.639-4.577-2.764-6.529-2.664c-1.367,0.075-2.201-0.374-3.474-0.674
				c-1.293-0.297-2.66-0.147-3.979-0.371c-0.449-0.075-1.542-0.45-1.941-0.075c-1.667,1.642,6.06,4.702,7.067,5.051
				c1.803,0.597,3.779,0.946,5.671,0.847c0.974-0.101,2.815-0.397,3.134-1.543C510.764,197.427,510.788,197.252,510.773,197.055z"/>
			<path class="st8" d="M509.815,216.314c1.134-0.05,1.883-0.622,1.718-2.017c-0.22-2.339-5.561-3.956-7.263-4.802
				c-2.116-1.071-5.416-3.108-7.892-2.987c-3.27,0.149,0.175,3.137,1.233,3.933C500.885,213.03,505.338,216.638,509.815,216.314z"/>
			<path class="st8" d="M488.167,198.819c0.05-0.023,0.115-0.072,0.149-0.098c1.633-1.096,3.35-2.488,1.458-4.157
				c-1.317-1.118-3.624-2.039-5.241-2.611c-2.336-0.871-5.15-1.42-7.651-1.42c-0.919,0-3.694-0.721-4.378,0.15
				c-0.823,1.021-0.015,1.842,0.858,2.438c1.408,0.946,2.801,2.042,4.293,2.838c0.934,0.497,1.952,0.771,2.885,1.293
				c0.858,0.499,1.657,1.12,2.591,1.545C484.773,199.568,486.565,199.764,488.167,198.819z"/>
		</g>
		<g>
			<path class="st8" d="M580.998,240.153c0.1-2.863,3.483-3.234,5.61-4.006c-0.534-5.376-14.78-7.989-15.514-1.221
				c-0.374,3.56,2.341,6.795,4.876,8.961c1.209,1.067,4.951,4.055,6.42,1.838C583.599,243.936,580.898,241.97,580.998,240.153z"/>
			<path class="st8" d="M559.46,226.94c0.1-0.523,0.698-0.971,2.241-1.792c3.494-1.892-0.674-3.833-2.66-4.529
				c-2.491-0.895-7.293-1.742-7.703,2.238c-0.324,2.987,2.911,5.551,4.978,7.393c1.353,1.168,4.627,3.781,3.968,0.05
				C559.959,228.358,559.311,227.562,559.46,226.94z"/>
			<path class="st8" d="M541.236,216.314c0.459-1.842,4.078-1.493,3.234-3.858c-0.6-1.715-3.324-1.094-4.707-1.343
				c-2.262-0.398-7.912-2.214-5.311,2.288c1.642,2.863,4.393,5.326,7.242,6.743C542.604,218.977,540.986,217.51,541.236,216.314z"/>
		</g>
	</g>
</g>
<g>
	<path class="st3" d="M106.607,283.252c6.344,0.674,11.53-0.646,17.805,1.07c3.419,0.945,6.418,2.938,9.603,4.106
		c6.818,2.462,13.871,3.408,20.754,6.121c4.277,1.642,14.744,2.438,17.604,5.301c6.22,6.197,2.352,25.406-2.041,31.902
		c-3.784,5.548-8.845,8.982-13.661,13.637c-5.586,5.424-10.163,12.167-16.148,17.144c-7.526,6.222-16.262,13.064-24.487,17.892
		c-7.128,4.208-11.011,11.994-17.655,15.478c30.533,0.921,58.725-2.96,86.188-16.896c9.594-4.876,19.807-8.685,29.459-13.312
		c4.633-2.267,9.809-3.983,14.161-6.694c3.624-2.24,6.06-6.893,11.026-6.942c11.67-0.05,22.331,28.565,28.217,37.476
		c4.791,7.265,5.15,14.657,10.392,20.951c3.17,3.859,8.646,5.923,7.388,11.598c-2.092-4.704,1.967-10.502,5.026-15.703
		c5.076-8.61,6.149-16.995,7.542-26.651c1.442-10.003,1.577-16.422,0.05-25.928c-1.718-10.652,1.317-22.247,0.719-33.37
		c-0.359-6.619-1.567-16.524,2.306-22.197c4.043-5.923,16.237-8.686,22.157-12.469c8.895-5.647,16.177-11.845,26.165-15.7
		c16.027-6.247,33.423-9.481,48.91-17.021c6.844-3.334,11.387-9.331,17.695-13.387c5.151-3.312,13.138-3.684,10.922-10.976
		c-0.201-0.722,0.199-1.617,0.039-2.414c-26.589-7.588-57.586,1.021-84.635,1.567c-12.553,0.25-29.584,1.892-40.595-4.452
		c-24.872-14.357-9.968-53.503-15.368-76.568c-3.645-15.453-9.988-8.61-16.237,4.23c-5.177,10.649-7.228,22.568-13.028,32.896
		c-6.543,11.596-15.389,25.282-25.182,34.291c-16.771,15.403-41.259,17.468-62.108,23.491c-21.712,6.27-43.909,15.03-66.146,19.285
		c-6.194,1.168-11.929,0.197-16.337,4.627c-2.984,2.988-8.445,7.565-8.705,12.02c-0.389,6.397,5.361,6.247,10.053,5.698
		C95.456,282.555,99.365,282.48,106.607,283.252z"/>
	<path class="st6" d="M230.195,337.026c1.428,1.792,0.444,0.746,0.109,2.713c-0.574,3.335,1.043,5.898,1.827,8.984
		c3.05,0.173,3.584,3.285,3.584,5.623c-0.035,3.957-0.075,6.444,2.565,9.681c1.492,1.843,3.085,2.81,4.003,5.052
		c0.515,1.243,0.749,2.439,1.224,3.682c0.483,1.195,1.342,1.966,2.001,3.037c0.908,1.592,1.258,2.538,1.842,4.33
		c0.794,2.288,1.019,4.803,2.416,6.743c0.979,1.317,1.911,1.146,2.351,3.06c0.359,1.47-0.114,2.888,0.569,4.28
		c1.183,2.363,4.442,3.833,5.735,6.097c0.689,1.196,0.09,2.539,0.698,3.609c0.6,0.996,1.777,1.07,2.501,1.767
		c2.251,2.164,2.352,3.906,5.326,5.227c4.303,1.889,6.559,2.463,9.379,6.022c1.422,1.767,4.123,4.378,6.483,2.464
		c2.575-2.092,1.293-6.472,1.343-9.257c0.04-1.817,0.684-2.514,1.308-4.108c0.724-1.864,0.524-4.08,0.624-6.047
		c0.135-2.76,1.184-3.31,2.326-5.572c1.627-3.235,2.975-6.993,4.393-10.353c2.017-4.827,3.045-10.152,4.192-15.253
		c0.359-1.644,0.983-3.261,0.844-4.978c-0.31-3.384-1.527-6.494-1.492-9.953c0.015-2.391-0.3-4.778-0.858-6.918
		c-0.545-2.191-0.359-4.181-0.569-6.472c-0.149-1.417-0.898-2.909-1.048-4.13c-0.175-1.368,0.434-2.264,0.549-3.484
		c0.16-1.989-0.809-3.931-1.008-5.872c-0.26-2.488-0.984-4.154-2.077-6.271c-1.198-2.314-0.733-3.656,0.494-5.995
		c1.298-2.416,2.182-3.709,1.224-6.72c-0.809-2.539-2.401-4.206-2.107-7.092c0.25-2.438,1.867-4.754,1.482-7.242
		c-0.259-1.666-0.993-3.559-1.566-5.25c-0.325-0.994-1.208-1.094-0.924-2.564c0.639-3.284,5.376-3.631,6.844-6.544
		c1.521-3.059,1.632-5.251,5.774-4.725c2.886,0.371,4.243,1.192,6.444-0.847c2.575-2.366,5.102-3.858,8.909-4.505
		c2.276-0.374,7.144,0.945,9.045-0.225c1.098-0.672,1.293-2.862,2.565-3.609c1.627-0.968,3.244-0.621,4.927-0.146
		c1.308,0.371,2.81,1.668,4.168,1.293c0.894-0.275,2.051-2.14,2.71-2.788c2.191-2.214,4.643-3.956,7.816-4.478
		c4.827-0.871,7.627,1.84,12.329-1.07c2.726-1.692,4.842-3.385,8.062-3.709c3.408-0.322,6.783-0.322,10.177-0.846
		c2.007-6.769,9.743-1.792,13.019-5.973c0.543-0.721,0.284-1.842,1.192-2.663c1.033-0.945,1.827-0.846,3.1-1.067
		c2.65-0.449,5.521-0.25,7.786-1.396c1.902-0.946,2.4-2.313,3.669-3.659c1.233-1.342,2.356-1.667,3.933-2.363
		c1.883-0.821,3.869-1.767,5.826-2.885c5.336-3.112,10.762-5.226,9.938-12.294c-4.727-1.243-9.528-0.621-14.42-0.1
		c-9.429,1.046-18.773,2.838-28.217,3.584c-3.684,0.275-7.527,1.292-11.186,1.22c-3.759-0.05-7.677-1.52-11.436-1.966
		c-3.658-0.449-7.228-1.196-10.897-1.346c-2.365-0.098-6.982,0.225-9.1-1.068c-1.801-1.12-2.31-3.559-4.611-4.255
		c-2.066-0.648-4.707,0.372-6.834,0.422c-2.41,0.05-5.575,0.524-7.886,0.025c-1.742-0.398-3.1-1.643-4.827-2.017
		c-1.816-0.372-3.948-0.148-5.8-0.422c-3.983-0.622-8.176,0-12.204-0.646c-2.615-0.399-4.856-0.175-7.342,0.125
		c-1.258,0.146-2.676,0.024-3.959,0.024c-0.568-0.024-0.634-0.474-1.303-0.424c-0.225,0.024-1.008,0.796-1.223,0.771
		c-1.068-0.05-1.827-0.995-2.811-1.367c-0.709-0.274-1.218-0.025-1.991-0.449c-0.773-0.421-0.409-0.846-1.407-1.068
		c0.09-1.643,1.322-2.49,0.848-4.354c-0.684-2.589-3.249-2.291-1.842-5.551c0.894-2.089,1.728-3.731,1.893-6.047
		c0.135-1.742,0.024-3.509,0.374-5.251c0.908-4.526,1.402-8.933,2.111-13.537c0.3-1.792,1.532-3.085,1.981-4.852
		c0.734-2.985-0.809-6.395,0.469-9.307c0.824-1.867,2.267-3.384,3.065-5.376c0.908-2.214,0.858-3.931,0.858-6.369
		c0-2.191-0.34-4.679,0.584-6.743c0.868-1.941,2.625-3.334,3.344-5.376c0.898-2.513-0.294-4.005-1.127-6.371
		c-0.6-1.593-0.15-2.86,0.494-4.478c1.393-3.634,3.024-7.491,1.632-11.298c-0.524-1.393-1.224-1.468-1.048-3.31
		c0.09-0.771,0.439-1.742,0.639-2.513c0.494-2.017,1.811-4.33,1.861-6.396c0.016-2.015-0.793-3.932-2.476-5.002
		c-1.303-0.846-1.043-0.771-2.436-0.496c-3.085,0.596-5.351,1.342-8.376,2.688c-2.017,0.871-4.143,1.418-6.02,2.413
		c-2.541,1.343-3.783,4.081-5.785,5.973c-1.917,1.842-5.102,4.105-6.174,6.594c-0.569,1.343-0.086,2.488-0.311,3.856
		c-0.249,1.841-0.039,1.319-1.991,2.587c-2.315,1.521-5.001,3.188-6.568,5.401c-1.108,1.517-1.068,2.314-1.418,4.155
		c-0.424,2.266-0.499,2.192-2.226,3.758c-2.156,1.893-4.882,3.11-6.809,5.102c-2.116,2.239-0.648,3.881-1.333,6.62
		c-0.444,1.791-2.236,3.832-3.693,5.025c-1.243,1.02-3.249,1.467-4.352,2.488c-1.682,1.517-0.959,2.266-1.173,4.754
		c-0.484,5.248-7.228,6.072-8.012,11.595c-0.708,5.102-4.492,6.669-6.878,11.049c-1.383,2.514-1.232,3.459-1.682,6.173
		c-0.4,2.463-2.352,3.408-4.293,4.876c-2.341,1.792-2.366,2.787-3.06,5.575c-0.409,1.617-0.425,3.98-1.333,5.448
		c-1.518,2.463-3.908,2.017-4.059,4.927c-0.145,2.638,0.809,4.033-0.594,6.793c-0.998,1.941-1.033,2.663-1.367,4.879
		c-0.35,2.313-2.182,2.413-2.865,4.181c0.858-0.101,1.742,0.1,2.191,0.571c-2.026,0.075-4.352,1.617-6.085,2.588
		c-5.211,2.963-8.275,8.511-13.661,11.198c-8.994,4.479-18.738,7.964-28.042,12.095c-12.544,5.572-23.579,14.73-36.807,18.912
		c-4.827,1.518-10.353,4.105-15.514,3.781c-1.941-0.1-2.875-0.347-4.632-1.343c-3.319-1.842-6.653-1.917-10.387-2.463
		c-5.811-0.896-10.588-1.221-16.078,0.147c-1.961,0.523-4.228,1.569-6.094,1.866c-3.175,0.474-5.037-0.597-6.32,2.888
		c-1.223,3.309,0.569,5.001,3.744,5.448c3.434,0.499,7.203,0,10.268,2.116c2.151,1.518,2.551,4.13,4.977,2.338
		c1.752-1.268,2.525-2.189,4.802-2.463c2.376-0.3,3.658,0.597,5.5,1.867c2.102,1.492,3.245,2.163,5.371,0.496
		c2.181-1.692,3.359-2.214,6.259-1.864c1.932,0.224,3.3,1.218,5.017,1.864c3.075,1.195,3.509-1.293,6.26-1.367
		c2.785-0.101,4.587,3.159,6.828,3.955c2.351,0.797,3.993-0.995,6.369-0.397c2.366,0.547,3.773,2.389,5.875,3.234
		c1.876,0.746,4.402-0.225,6.384,0.422c1.158,0.399,0.619,1.07,1.977,0.971c1.118-0.1,3.559-3.459,4.877-2.735
		c0.934,0.497,0.898,2.514,1.417,3.36c0.609,0.992,1.792,2.064,2.965,2.362c1.493,0.347,2.636-0.696,4.019-0.721
		c1.777-0.025,3.833,0.297,5.67,0.347c2.217,0.024,2.815,0.574,4.133,2.413c1.068,1.519,2.785,2.491,2.75,4.255
		c-0.039,0.847-1.482,3.959-1.916,4.68c-0.959,1.593-2.426,1.717-2.885,4.155c-0.749,3.908-0.141,7.814-0.101,11.695
		c0.035,3.634-1.333,6.347-3.648,9.134c-3.943,4.702-7.996,9.407-12.089,14.009c-7.068,7.914-13.467,16.374-21.464,23.343
		c-6.843,5.997-14.51,11.048-21.478,17.146c-3.684,3.209-7.303,5.723-10.287,9.803c-3.335,4.555,1.791,8.114,5.969,6.147
		c2.342-1.096,3.869-2.812,6.125-3.956c2.61-1.396,4.951-1.046,7.986-1.096c4.018-0.05,3.918-1.393,6.584-3.858
		c2.026-1.864,6.109-3.159,8.729-3.506c2.431-0.325,5.216,0.696,7.258-0.6c2.026-1.268,3.259-3.806,5.595-5.051
		c1.533-0.821,3.35-1.367,5.052-1.567c1.283-0.15,3.634,0.374,4.832-0.101c2.251-0.895,3.828-3.658,5.011-5.548
		c1.383-2.19,3.969-4.729,6.609-5.399c3.769-0.972,6.893,2.164,10.812,0.995c4.107-1.195,2.561-4.729,5.11-7.118
		c1.982-1.867,5.641-1.667,8.002-2.413c3.225-1.071,4.742-2.363,6.124-5.102c1.134-2.313,1.453-4.405,3.56-6.122
		c1.417-1.143,3.219-2.338,5.011-2.562c1.408-0.2,3.719,0.721,4.642-0.896c0.933-1.667-1.068-4.478-0.425-6.443
		c1.023-3.062,5.191-0.325,7.468-1.768c3.559-2.216,0.983-7.839,5.67-8.859c2.456-0.521,5.266-3.656,7.582-1.717
		c0.979,0.82,1.368,2.562,2.026,3.633C227.954,335.335,229.222,335.784,230.195,337.026z"/>
	<g>
		<g>
			<defs>
				<path id="SVGID_1_" d="M100.572,382.987c11.87-17.192,27.358-31.278,41.953-46.085c6.719-6.841,12.429-14.655,17.695-22.669
					c3.578-5.376,10.646-12.392,12.812-18.438c2.636-7.343-0.234-5.625-7.492-6.422c-7.362-0.771-14.37-3.334-21.708-3.881
					c-7.976-0.621-15.727,0.922-23.929-0.646c-16.037-3.112-30.643-7.368-47.504-6.223c-4.316,0.3-12.643,1.121-8.275-5.922
					c3.31-5.276,15.419-9.105,21.079-11.198c17.021-6.297,33.882-13.09,51.152-18.738c15.888-5.15,32.544-9.281,48.995-12.243
					c13.587-2.488,24.289,0.648,28.642-14.083c4.377-14.883,10.362-29.439,18.278-42.827c7.152-12.02,16.821-22.072,24.264-33.842
					c2.81-4.455,32.669-44.644,39.093-39.667c3.843,2.987-3.14,23.592-4.059,27.174c-2.19,8.685-4.167,17.42-5.935,26.155
					c-2.416,11.794-4.677,23.639-6.634,35.533c-0.983,6.023-1.866,12.095-2.636,18.191c-0.633,4.952-1.926,10.624,4.643,10.277
					c8.296-0.424,16.606-0.549,24.907-0.399c16.911,0.225,33.782,1.221,50.653,1.096c16.772-0.149,32.883-4.729,49.33-5.001
					c6.384-0.125,13.267,0.895,19.512,2.215c8.944,1.841,14.879,3.607,6.259,9.927c-23.714,17.245-53.044,20.953-80.067,30.609
					c-20.974,7.49-43.086,10.949-64.016,17.768c-2.436,26.327,2.94,49.12,6.459,74.651c2.042,14.707-0.674,29.016-2.934,43.473
					c-0.809,5.026,5.076,50.217-10.986,38.572c-3.085-2.239-6.009-9.954-8.251-13.116c-10.212-14.332-18.553-29.361-24.263-46.035
					c-1.817-5.424-21.982-57.881-23.5-56.511c-13.936,12.691-22.196,29.412-37.69,40.91c-8.845,6.519-19.905,10.424-29.724,15.278
					c-7.053,3.509-59.898,34.191-64.934,27.099C88.214,392.993,98.082,386.596,100.572,382.987z"/>
			</defs>
			<use xlink:href="#SVGID_1_"  style="overflow:visible;fill:#89888C;"/>
			<clipPath id="SVGID_4_">
				<use xlink:href="#SVGID_1_"  style="overflow:visible;"/>
			</clipPath>
			<path class="st9" d="M255.053,321.127c2.251,11.52,3.693,23.292,5.5,34.962c1.892,12.616,3.569,27.572,8.686,39.243
				c3.509,8.038,9.443,14.657,14.046,22.021c3.918,6.347,6.803,12.069,12.269,16.996c4.553-8.635,4.901-25.831,5.62-35.834
				c1.532-21.425-5.62-47.603,4.433-67.511c4.402-8.683,10.686-16.747,15.778-25.008c7.562-12.344,17.23-17.941,29.809-24.51
				c24.473-12.769,53.362-17.57,76.309-33.223c6.894-4.728,23.165-18.689,7.003-22.42c-7.736-1.791-20.515,2.364-28.106,3.931
				c-7.861,1.617-15.339,4.33-22.915,6.844c-11.262,3.759-23.27,6.022-34.916,8.235c-27.522,5.227-54.57,9.98-82.543,11.074
				c-5.036,0.199-20.255-1.814-24.309,2.516c-5.516,5.922,4.468,18.463,5.96,24.585C250.71,295.296,252.602,308.511,255.053,321.127
				z"/>
			<path class="st9" d="M298.153,187.499c4.901-9.507,8.311-14.259,7.687-25.109c-0.619-10.974-2.116-21.898-3.494-32.821
				c-1.542-11.995,1.603-28.019-6.783-38.197c-13.547,6.619-25.047,30.779-30.098,44.691c-5.536,15.279-7.902,32.922-5.012,48.725
				c1.468,8.014,0.569,30.932,11.061,33.37C283.594,221.015,293.397,196.655,298.153,187.499z"/>
			<path class="st9" d="M95.371,269.392c19.767-1.667,39.218-9.06,58.975-11.273c15.713-1.792,82.078,1.542,58.823,32.599
				c-7.961,10.574-18.847,18.838-28.691,27.298c-14.306,12.316-29.51,24.037-45.202,34.314c-6.27,4.108-13.173,7.442-18.663,12.444
				c-5.251,4.752-10.237,12.516-16.396,15.7c-0.635-14.208,11.385-24.535,18.912-35.709c6.743-10.003,15.613-18.462,20.94-29.486
				c1.926-4.006,5.375-11.148,2.635-15.629c-3.843-6.294-17.02-1.095-23.789-0.896c-16.656,0.499-30.542-1.046-45.861-7.764
				c-5.236-2.264-11.136-5.398-13.122-11.246C57.906,261.653,88.064,270.064,95.371,269.392z"/>
		</g>
		<path class="st8" d="M163.939,318.863c2.017,2.163,10.552-5.751,12.194-7.392c1.717-1.718,10.487-11.321,6.568-14.159
			c-3.783-2.763-6.843,3.584-8.46,5.848c-2.775,3.883-10.093,8.535-10.662,13.561C163.439,317.792,163.605,318.488,163.939,318.863z
			"/>
		<g>
			<path class="st8" d="M215.336,223.407c3.408,2.263,6.743-0.996,8.336-3.809c2.74-4.852,3.523-9.506,4.257-14.954
				c0.2-1.445,2.102-6.744,0.26-7.64c-1.243-0.599-2.561,1.692-3.135,2.588c-1.677,2.636-3.135,5.299-4.477,8.161
				c-0.933,1.968-2.351,3.783-3.334,5.798C216.135,215.817,212.216,221.34,215.336,223.407z"/>
			<path class="st8" d="M230.654,181.027c-0.998,2.266-1.667,5.001,0.584,6.072c1.951,0.872,4.901-2.139,5.984-3.335
				c0.659-0.721,1.094-1.367,1.553-2.264c1.148-2.19,2.7-4.154,3.833-6.32c1.792-3.459,3.584-7.315,4.817-10.999
				c0.334-0.972,1.083-3.435-0.31-3.731c-0.909-0.225-2.392,1.518-2.915,2.014c-1.503,1.395-3.334,2.613-4.627,4.131
				c-2.017,2.341-2.91,5.426-4.802,7.839c-1.059,1.345-2.042,2.463-2.851,4.03C231.588,179.113,231.089,180.009,230.654,181.027z"/>
			<path class="st8" d="M271.19,184.636c0.21,0.274,0.499,0.475,0.794,0.696c5.241,3.759,8.325-16.025,5.142-17.966
				c-1.768-1.068-3.659,1.295-4.418,2.662c-1.433,2.613-2.601,5.676-2.95,8.66C269.532,180.855,269.747,183.068,271.19,184.636z"/>
			<path class="st8" d="M265.165,212.705c0.29,0.524,0.764,0.946,1.482,1.271c4.816,2.039,7.033-5.775,7.018-9.01
				c-0.011-2.238,2.565-10.599-0.919-11.369c-1.099-0.25-3.374,3.53-3.908,4.501c-1.542,2.913-2.79,5.874-3.409,9.109
				C265.096,208.899,264.287,211.163,265.165,212.705z"/>
			<path class="st8" d="M279.166,158.433c3.27-0.075,3.759-5.376,3.818-7.739c0.016-1.717,0.648-2.737,1.108-4.255
				c0.459-1.493,0.374-3.259,0.759-4.827c0.149-0.549,0.658-1.842,0.234-2.366c-1.902-2.163-6.284,7.093-6.769,8.239
				c-0.858,2.188-1.478,4.602-1.452,6.918c0,1.168,0.26,3.459,1.617,3.955C278.742,158.408,278.941,158.483,279.166,158.433z"/>
			<path class="st8" d="M253.41,153.68c0,1.443,0.634,2.364,2.352,2.314c2.875-0.125,5.325-6.521,6.493-8.56
				c1.418-2.488,4.218-6.396,4.243-9.431c0.039-4.006-3.844,0-4.912,1.192C258.177,143.005,253.41,148.206,253.41,153.68z"/>
			<path class="st8" d="M276.615,128.548c0.035,0.074,0.061,0.149,0.109,0.225c1.174,2.064,2.791,4.255,4.952,2.089
				c1.518-1.517,2.825-4.28,3.634-6.22c1.218-2.788,2.116-6.197,2.326-9.284c0.074-1.143,1.158-4.452,0.15-5.373
				c-1.192-1.096-2.251-0.2-3.025,0.871c-1.293,1.617-2.721,3.259-3.829,5.026c-0.708,1.096-1.107,2.338-1.792,3.409
				c-0.698,1.046-1.532,1.964-2.102,3.084C275.967,124.317,275.542,126.48,276.615,128.548z"/>
		</g>
		<path class="st6" d="M238.9,262.45c0.549-2.017,0.624-4.056-0.035-5.823c-3.31-8.76-12.928,0.025-12.543,6.52
			c0.064,1.045,0.273,2.091,0.658,3.01C230.34,274.518,237.133,268.869,238.9,262.45z"/>
		<path class="st8" d="M262.345,309.132c0.719-0.771,1.503-1.293,2.636-1.367c3.225,9.578-6.17,32.1-14.904,15.95
			c-3.1-5.723-7.752-18.167,3.185-10.178c6.853,5.001,3.469,3.435,8.001-2.963C261.621,310.053,261.971,309.556,262.345,309.132z"/>
		<path class="st8" d="M250.176,276.758c0.424-0.971,0.993-1.742,2.092-2.139c6.059,8.061,4.242,32.399-9.135,19.855
			c-4.752-4.477-13.102-14.854-0.184-10.699c8.071,2.613,4.362,2.164,6.653-5.351C249.776,277.828,249.977,277.254,250.176,276.758z
			"/>
		<path class="st8" d="M270.357,362.732c5.101-1.866,4.008-21.426,0.783-25.381c-2.416-3.011-4.642,9.777-4.603,10.427
			c0.025,1.468-9.368-2.241-5.564,7.39C262.345,358.652,265.804,364.325,270.357,362.732z"/>
		<path class="st8" d="M222.429,295.72c1.008,0.2,1.876,0.597,2.525,1.567c-6.584,7.69-30.683,11.224-21.373-4.579
			c3.309-5.598,11.58-16,10.377-2.514c-0.749,8.461-1.133,4.755,6.679,5.326C221.261,295.57,221.869,295.62,222.429,295.72z"/>
		<path class="st8" d="M180.635,330.183c4.184,3.434,20.396-7.614,22.112-12.392c1.328-3.608-10.727,1.071-11.301,1.442
			c-1.243,0.771-2.909-9.181-9.219-0.97C179.936,321.226,176.901,327.124,180.635,330.183z"/>
		<path class="st8" d="M238.506,235.101c3.444-0.597,4.811,3.359,6.305,5.673c6.283-2.089,5.649-19.881-2.671-18.938
			c-4.393,0.524-7.532,4.654-9.483,8.238c-0.959,1.767-3.51,7.043-0.449,8.211C234.672,239.257,236.3,235.498,238.506,235.101z"/>
		<path class="st8" d="M248.594,205.737c0.648,0,1.317,0.599,2.75,2.216c3.209,3.707,4.407-1.842,4.691-4.38
			c0.385-3.259,0.125-9.182-4.717-8.66c-3.668,0.425-5.895,5.002-7.512,7.939c-1.098,1.938-3.289,6.568,0.979,4.802
			C247.016,206.733,247.76,205.737,248.594,205.737z"/>
		<path class="st8" d="M256.445,181.077c2.315,0,2.885,4.455,5.5,2.812c1.852-1.195,0.409-4.255,0.35-5.997
			c-0.125-2.812,0.52-10.077-4.158-5.747c-3.049,2.737-5.225,6.644-6.159,10.474C253.595,183.443,254.902,181.077,256.445,181.077z"
			/>
		<path class="st8" d="M260.428,252.644c2.186,2.737-0.634,5.824-1.967,8.263c4.817,4.553,20.156-4.505,15.364-11.348
			c-2.511-3.634-7.637-4.43-11.729-4.43c-2.017,0-7.867,0.249-7.453,3.509C254.963,251.251,259.046,250.902,260.428,252.644z"/>
		<path class="st8" d="M291.086,247.567c0.324,0.574,0.109,1.445-0.65,3.484c-1.742,4.58,3.698,2.963,6.085,2.066
			c3.034-1.221,8.15-4.305,5.375-8.286c-2.126-3.037-7.217-2.812-10.586-2.837c-2.182-0.025-7.308,0.249-3.699,3.135
			C289.453,246.646,290.686,246.846,291.086,247.567z"/>
		<path class="st8" d="M316.502,242.741c1.107,2.066-2.561,4.654,0.149,6.172c1.932,1.093,3.958-1.643,5.44-2.538
			c2.451-1.444,9.12-4.306,3.096-6.396c-3.869-1.343-8.346-1.418-12.154-0.447C313.107,241.373,315.793,241.398,316.502,242.741z"/>
		<path class="st8" d="M263.523,161.642c0.249-0.024,0.498-0.024,0.738,0c1.093,0.325,1.428,2.264,2.91,1.372
			c1.242-0.825,0.26-2.914,0.209-4.084c-0.074-1.939,0.35-6.844-2.835-3.906c-0.998,0.896-4.617,4.727-3.719,6.344
			C261.411,162.414,262.545,161.843,263.523,161.642z"/>
		<g>
			<path class="st8" d="M281.816,284.547c-0.783,0.024-1.567,0.721-1.892,2.288c-1.368,5.848,0.399,12.815,2.251,18.441
				c1.732,5.349,2.925-1.643,3.085-3.634c0.239-4.03,0.624-10.727-0.759-14.558C283.928,285.543,282.85,284.547,281.816,284.547z"/>
			<path class="st8" d="M287.811,329.986c-0.408-2.44-1.342-5.076-3.833-4.729c-2.126,0.324-2.91,4.506-3.145,6.072
				c-0.175,0.945-0.175,1.742-0.05,2.737c0.274,2.464,0.035,4.952,0.284,7.415c0.3,2.514,0.05,10.651,4.892,9.281
				c4.453-1.218,1.827-9.878,2.066-12.99c0.15-1.717,0.32-3.209,0.17-4.951C288.125,332.125,288.025,331.079,287.811,329.986z"/>
			<path class="st8" d="M247.81,355.118c-0.334-0.1-0.708-0.149-1.058-0.149c-6.454-0.223,1.932,17.941,5.635,17.792
				c2.066-0.073,2.342-3.085,2.191-4.603c-0.184-2.987-0.958-6.197-2.311-8.859C251.259,357.334,249.861,355.617,247.81,355.118z"/>
			<path class="st8" d="M238.58,322.197c-0.498-0.274-1.157-0.374-1.891-0.225c-5.151,0.945-2.751,8.66-0.909,11.374
				c1.218,1.863,3.709,10.251,7.078,8.98c1.019-0.371,0.849-4.776,0.709-5.896c-0.284-3.31-0.909-6.444-2.167-9.482
				C240.742,325.332,240.183,322.993,238.58,322.197z"/>
			<path class="st8" d="M258.287,380.078c-0.234,0.074-0.459,0.175-0.635,0.297c-5.051,3.584,5.82,17.569,7.803,20.729
				c0,0,0.273-4.306,0.084-5.051c-0.619-2.314-1.577-4.306-1.816-6.669C263.488,386.996,262.43,379.007,258.287,380.078z"/>
			<path class="st8" d="M287.861,368.904c-0.759-1.17-1.792-1.592-3.185-0.621c-2.341,1.692-0.834,8.386-0.699,10.724
				c0.175,2.888,0,7.689,1.657,10.228c2.151,3.36,3.21-2.113,3.435-3.733C289.817,380.425,290.886,373.484,287.861,368.904z"/>
			<path class="st8" d="M282.925,404.913c-0.025-0.025-0.101-0.075-0.2-0.125c-2.116-1.071-4.667-2.017-5.275,0.995
				c-0.425,2.114,0.01,5.102,0.398,7.166c0.545,3.037,1.668,6.347,3.186,9.034c0.568,0.996,1.502,4.38,2.824,4.577
				c1.603,0.249,1.962-1.068,2.062-2.363c0.164-2.089,0.464-4.256,0.414-6.319c-0.025-1.32-0.39-2.588-0.39-3.858
				c0-1.245,0.215-2.463,0.05-3.733C285.819,408.072,284.961,406.055,282.925,404.913z"/>
		</g>
		<g>
			<path class="st8" d="M214.192,315.626c-0.634-0.497-1.657-0.447-2.95,0.499c-4.816,3.634-7.901,10.103-10.127,15.603
				c-2.102,5.174,3.274,0.621,4.667-0.821c2.81-2.912,7.427-7.765,8.81-11.598C215.161,317.742,214.977,316.25,214.192,315.626z"/>
			<path class="st8" d="M189.32,347.678c2.7-2.066,4.792-6.969-0.16-6.669c-3.349,0.223-8.525,5.026-11.475,6.518
				c-2.102,1.071-4.268,1.917-6.295,3.234c0.385,7.49,12.579,1.146,15.18-1.045C187.179,349.171,188.287,348.474,189.32,347.678z"/>
			<path class="st8" d="M158.723,329.065c-0.06-0.3-0.16-0.674-0.295-0.996c-2.44-5.972-15.578,9.132-13.91,12.467
				c0.893,1.842,3.768,0.846,5.111,0.1c2.615-1.418,5.266-3.435,7.117-5.773C158.113,333.145,159.122,331.18,158.723,329.065z"/>
			<path class="st8" d="M137.783,351.634c-0.149-0.199-0.309-0.321-0.519-0.472c-4.492-2.638-13.976,9.507-13.003,13.038
				c3.085,0.05,4.852-2.389,7.288-3.781C133.641,359.198,140.459,354.969,137.783,351.634z"/>
			<path class="st8" d="M160.27,362.907c0.76-1.195,0.72-2.339-0.748-3.185c-2.501-1.445-8.001,2.688-10.068,3.806
				c-2.525,1.32-6.952,3.138-8.609,5.676c-2.201,3.384,3.239,2.064,4.791,1.617C150.552,369.426,157.346,367.561,160.27,362.907z"/>
			<path class="st8" d="M120.179,378.161c0.015-0.05,0.015-0.148,0.025-0.2c0.109-2.413-0.101-5.126-3.085-4.452
				c-2.092,0.497-4.642,2.139-6.369,3.336c-2.541,1.716-5.102,4.104-6.908,6.592c-0.669,0.922-3.369,3.16-3.01,4.505
				c0.435,1.543,1.817,1.318,3.01,0.896c1.977-0.724,4.068-1.346,5.925-2.241c1.168-0.571,2.201-1.418,3.395-1.941
				c1.108-0.522,2.301-0.847,3.384-1.468C118.462,382.092,119.969,380.474,120.179,378.161z"/>
		</g>
		<g>
			<path class="st8" d="M305.241,226.516c-0.085,0.796,0.524,1.642,2.057,2.139c5.71,1.941,12.803,0.846,18.598-0.422
				c5.451-1.195-1.353-3.085-3.319-3.409c-3.968-0.671-10.561-1.717-14.569-0.721C306.414,224.5,305.316,225.52,305.241,226.516z"/>
			<path class="st8" d="M274.115,223.407c-0.101,0.82,0.509,1.617,2.066,2.139c5.67,1.916,12.763,0.846,18.572-0.422
				c5.476-1.171-1.367-3.062-3.284-3.409c-4.018-0.674-10.627-1.717-14.58-0.724C275.283,221.39,274.164,222.411,274.115,223.407z"
				/>
			<path class="st8" d="M344.14,220.969c-2.451,0.172-5.201,0.868-5.052,3.359c0.1,2.139,4.153,3.358,5.695,3.756
				c0.934,0.249,1.717,0.324,2.716,0.299c2.485-0.024,4.937,0.447,7.412,0.423c2.516,0,10.592,1.02,9.768-3.882
				c-0.809-4.579-9.654-2.837-12.754-3.384c-1.691-0.3-3.159-0.646-4.916-0.646C346.291,220.893,345.258,220.893,344.14,220.969z"/>
			<path class="st8" d="M336.832,252.619c-3.045,1.245-6.928,3.584-1.927,4.158c4.393,0.472,9.119-0.125,13.212-1.792
				c1.817-0.749,9.06-4.63,5.96-6.396c-3.394-1.892-12.564,2.438-15.997,3.584C337.716,252.297,337.296,252.447,336.832,252.619z"/>
			<path class="st8" d="M300.43,261.678c-1.857,0.422-3.724,0.871-5.586,1.243c-4.582,0.995-3.114,3.309,0.759,3.434
				c4.927,0.149,10.872,0.175,15.329-2.214c2.551-1.37,5.935-1.395,7.961-3.634c-2.092-2.513-8.45-0.721-11.136-0.299
				C305.291,260.633,302.855,261.154,300.43,261.678z"/>
			<path class="st8" d="M372.641,242.716c0.025,0.25,0.1,0.472,0.215,0.672c2.51,4.354,13.412-0.646,16.137-2.689
				c5.376-4.03-4.652-2.463-6.543-2.463C380.022,238.236,372.007,238.461,372.641,242.716z"/>
			<path class="st8" d="M379.658,221.764c-0.968,1.043-1.178,2.139,0.125,3.284c2.131,1.914,8.376-1.07,10.627-1.717
				c2.735-0.821,7.442-1.717,9.528-3.908c2.841-2.835-2.735-2.638-4.353-2.513C390.46,217.309,383.457,217.806,379.658,221.764z"/>
			<path class="st8" d="M410.306,222.833c-0.549,1.221-0.873,2.737-0.8,4.555c0.126,4.056,2.207,3.06,4.867,1.866
				c3.275-1.491,14.037-1.145,14.48-6.146c0.315-3.434-5.42-4.455-8.035-4.654C415.966,218.081,411.973,219.252,410.306,222.833z"/>
		</g>
		<g>
			<path class="st8" d="M203.107,235.722c-0.634-5.076-20.989-5.548-20.754,0.771c0.159,4.704,18.837,3.56,20.395,0.722
				C203.057,236.669,203.166,236.172,203.107,235.722z"/>
			<path class="st8" d="M160.914,281.012c2.44-0.372,5.126-1.268,4.792-3.759c-0.284-2.113-4.418-2.984-6-3.259
				c-0.968-0.173-1.742-0.173-2.726-0.1c-2.485,0.199-4.961-0.051-7.427,0.149c-3.878,0.374-8.071,0.896-11.87,1.843
				c-0.993,0.25-3.469,0.895-2.97,2.237c0.31,0.896,2.551,1.222,3.245,1.42c1.977,0.522,4.018,1.368,5.975,1.692
				c3.094,0.422,6.169-0.424,9.204-0.149c1.692,0.149,3.185,0.35,4.941,0.225C158.773,281.262,159.855,281.187,160.914,281.012z"/>
			<path class="st8" d="M143.369,247.792c0.09-0.349,0.14-0.671,0.165-1.045c0.359-6.443-17.97,1.592-17.894,5.325
				c0.04,2.042,3.024,2.363,4.558,2.264c2.984-0.197,6.234-0.846,8.904-2.163C141.068,251.201,142.85,249.858,143.369,247.792z"/>
			<path class="st8" d="M173.308,241.098c0.234-0.474,0.385-1.096,0.21-1.892c-0.818-5.176-8.596-2.888-11.32-1.096
				c-1.867,1.195-10.328,3.509-9.12,6.894c0.359,1.046,4.763,0.921,5.896,0.846c3.284-0.247,6.449-0.795,9.518-1.989
				C170.123,243.213,172.475,242.716,173.308,241.098z"/>
			<path class="st8" d="M188.771,288.105c0.499-0.274,0.934-0.746,1.223-1.47c2.026-4.852-5.811-6.99-9.074-6.916
				c-2.227,0.025-10.637-2.466-11.371,1.045c-0.234,1.095,3.584,3.308,4.577,3.832c2.9,1.518,5.886,2.713,9.149,3.31
				C184.968,288.23,187.229,289.026,188.771,288.105z"/>
			<path class="st8" d="M116.32,255.928c-1.802-2.686-6.554-0.297-8.595,0.971c-1.458,0.896-2.601,0.896-4.144,1.32
				c-1.557,0.422-2.949,1.418-4.507,1.967c-0.534,0.172-1.911,0.421-2.126,1.067c-0.834,2.763,9.318,1.493,10.602,1.27
				c2.291-0.424,4.642-1.195,6.594-2.463c0.993-0.65,2.8-2.066,2.476-3.508C116.545,256.303,116.471,256.128,116.32,255.928z"/>
			<path class="st8" d="M126.688,277.231c1.184-0.724,1.643-1.792,0.659-3.212c-1.617-2.338-8.36-0.971-10.702-0.871
				c-2.885,0.125-7.637-0.124-10.227,1.471c-3.435,2.089,2.026,3.259,3.644,3.506C115.117,278.946,122.046,280.217,126.688,277.231z
				"/>
			<path class="st8" d="M93.03,271.16c0-0.051,0.075-0.15,0.101-0.175c1.117-2.141,2.116-4.68-0.898-5.352
				c-2.077-0.446-5.111-0.05-7.178,0.275c-3.025,0.472-6.385,1.517-9.085,3.01c-0.979,0.549-4.402,1.42-4.627,2.763
				c-0.274,1.592,1.058,1.967,2.351,2.091c2.082,0.197,4.233,0.522,6.31,0.522c1.308-0.024,2.565-0.324,3.868-0.324
				c1.223,0.05,2.451,0.25,3.699,0.15C89.781,273.97,91.838,273.148,93.03,271.16z"/>
		</g>
		<g>
			<path class="st8" d="M217.427,260.883c-1.558-3.138,1.852-5.551,3.694-7.64c-3.754-5.476-20.655,0.125-17.44,7.836
				c1.702,4.083,6.528,5.948,10.537,6.818c1.951,0.425,7.736,1.421,8.011-1.839C222.479,263.421,218.41,262.871,217.427,260.883z"/>
			<path class="st8" d="M186.42,259.362c-0.185-0.621,0.2-1.442,1.357-3.234c2.661-4.13-2.984-3.73-5.51-3.334
				c-3.225,0.524-8.885,2.439-6.993,6.969c1.417,3.408,6.419,4.254,9.703,5.025c2.167,0.449,7.227,1.32,4.317-2.314
				C187.803,260.607,186.66,260.136,186.42,259.362z"/>
			<path class="st8" d="M160.515,258.691c-0.608-2.263,3.509-4.031,1.223-6.097c-1.657-1.443-4.232,0.796-5.874,1.345
				c-2.661,0.895-9.844,2.288-4.368,5.598c3.474,2.142,7.852,3.162,11.785,3.013C163.579,260.758,160.964,260.136,160.515,258.691z"
				/>
		</g>
	</g>
</g>
</svg>